<?xml version="1.0" encoding="utf-8"?>
<svg viewBox="15.03 33.998 257.828 469.532" width="350.828" height="469.532" xmlns="http://www.w3.org/2000/svg">
    <defs>
        <clipPath clipPathUnits="userSpaceOnUse" id="clipPath18">
            <path d="m 173.674,168.213 -15.949,-17.512 c -7.082,-8.363 -11.331,-16.407 -9.491,-17.965 v 0 c 1.841,-1.559 9.074,3.959 16.155,12.322 v 0 c 0.914,1.079 1.779,2.151 2.591,3.204 v 0 c 0.412,-1.169 1.063,-2.164 1.965,-2.928 v 0 c 1.037,-0.879 2.319,-1.379 3.766,-1.536 v 0 c -0.972,-1.037 -1.956,-2.142 -2.937,-3.3 v 0 c -7.081,-8.364 -11.331,-16.407 -9.489,-17.965 v 0 c 1.84,-1.559 9.072,3.958 16.155,12.322 v 0 l 14.292,18.914 c 7.322,8.648 9.438,18.891 4.728,22.88 v 0 c -1.274,1.079 -2.917,1.589 -4.78,1.59 v 0 c -5.029,0 -11.664,-3.717 -17.006,-10.026" id="path16" />
        </clipPath>
        <clipPath clipPathUnits="userSpaceOnUse" id="clipPath30">
            <path d="m 142.475,141.358 h 13.88 v -13.681 h -13.88 z" id="path28" />
        </clipPath>
        <clipPath clipPathUnits="userSpaceOnUse" id="clipPath46">
            <path d="M 155.358,130.45 H 169.24 V 116.769 H 155.358 Z" id="path44" />
        </clipPath>
        <clipPath clipPathUnits="userSpaceOnUse" id="clipPath62">
            <path d="m 171.832,205.614 c -2.362,-0.894 -1.082,-10.054 2.86,-20.457 v 0 c 3.94,-10.403 9.048,-18.112 11.408,-17.217 v 0 c 2.363,0.894 1.083,10.053 -2.858,20.455 v 0 c -3.733,9.854 -8.511,17.29 -11.013,17.29 v 0 c -0.139,0 -0.272,-0.024 -0.397,-0.071" id="path60" />
        </clipPath>
        <clipPath clipPathUnits="userSpaceOnUse" id="clipPath74">
            <path d="m 162.619,215.16 h 20.104 v -19.895 h -20.104 z" id="path72" />
        </clipPath>
        <clipPath clipPathUnits="userSpaceOnUse" id="clipPath90">
            <path d="m 189.294,154.085 c -2.501,-10.84 -2.534,-20.089 -0.074,-20.655 v 0 c 2.46,-0.568 6.482,7.758 8.983,18.599 v 0 c 2.501,10.84 2.534,20.087 0.073,20.655 v 0 c -0.079,0.018 -0.16,0.027 -0.243,0.027 v 0 c -2.474,0 -6.319,-8.136 -8.739,-18.626" id="path88" />
        </clipPath>
        <clipPath clipPathUnits="userSpaceOnUse" id="clipPath102">
            <path d="m 180.081,144.022 h 19.834 v -20.163 h -19.834 z" id="path100" />
        </clipPath>
        <clipPath clipPathUnits="userSpaceOnUse" id="clipPath118">
            <path d="M 0,500 H 750 V 0 H 0 Z" id="path116" />
        </clipPath>
        <clipPath clipPathUnits="userSpaceOnUse" id="clipPath234">
            <path d="m 83.322,232.739 v -53.211 h 57.811 l 0.436,53.211 c 0,18.949 -13.038,34.313 -29.121,34.313 v 0 c -16.085,0 -29.126,-15.364 -29.126,-34.313" id="path232" />
        </clipPath>
        <clipPath clipPathUnits="userSpaceOnUse" id="clipPath254">
            <path d="M 0,500 H 750 V 0 H 0 Z" id="path252" />
        </clipPath>
        <clipPath clipPathUnits="userSpaceOnUse" id="clipPath266">
            <path d="m 83.3218,197.415 h 57.9162 v -6.307 H 83.3218 Z" id="path264" />
        </clipPath>
        <clipPath clipPathUnits="userSpaceOnUse" id="clipPath300">
            <path d="m 105.807,304.183 h 8.298 v -9.754 h -8.298 z" id="path298" />
        </clipPath>
        <clipPath clipPathUnits="userSpaceOnUse" id="clipPath380">
            <path d="M 44.8848,116.725 H 175.026 V 78.9082 H 44.8848 Z" id="path378" />
        </clipPath>
        <clipPath clipPathUnits="userSpaceOnUse" id="clipPath408">
            <path d="m 217.631,294.686 h 16.283 v -10.249 h -16.283 z" id="path406" />
        </clipPath>
        <clipPath clipPathUnits="userSpaceOnUse" id="clipPath432">
            <path d="m 225.556,294.301 h 12.514 v -8.218 h -12.514 z" id="path430" />
        </clipPath>
        <clipPath clipPathUnits="userSpaceOnUse" id="clipPath464">
            <path d="m 350.167,290.269 h 16.264 v -10.342 h -16.264 z" id="path462" />
        </clipPath>
        <clipPath clipPathUnits="userSpaceOnUse" id="clipPath488">
            <path d="m 345.984,290.168 h 12.599 v -7.764 h -12.599 z" id="path486" />
        </clipPath>
        <clipPath clipPathUnits="userSpaceOnUse" id="clipPath568">
            <path d="m 260.181,233.825 -3.47,-53.097 57.688,-3.77 3.906,53.069 c 1.235,18.909 -10.773,35.09 -26.822,36.138 v 0 c -0.548,0.036 -1.096,0.054 -1.638,0.054 v 0 c -15.357,0.001 -28.47,-14.131 -29.664,-32.394" id="path566" />
        </clipPath>
        <clipPath clipPathUnits="userSpaceOnUse" id="clipPath588">
            <path d="M 0,500 H 750 V 0 H 0 Z" id="path586" />
        </clipPath>
        <clipPath clipPathUnits="userSpaceOnUse" id="clipPath600">
            <path d="M 257.466,198.576 H 315.67 V 188.513 H 257.466 Z" id="path598" />
        </clipPath>
        <clipPath clipPathUnits="userSpaceOnUse" id="clipPath636">
            <path d="m 287.011,303.368 h 8.11 v -9.758 h -8.11 z" id="path634" />
        </clipPath>
        <clipPath clipPathUnits="userSpaceOnUse" id="clipPath692">
            <path d="M 208.455,116.725 H 338.596 V 78.9082 H 208.455 Z" id="path690" />
        </clipPath>
        <clipPath clipPathUnits="userSpaceOnUse" id="clipPath752">
            <path d="m 437.17,232.739 v -53.211 h 57.81 l 0.437,53.211 c 0,18.949 -13.038,34.313 -29.12,34.313 v 0 c -16.086,0 -29.127,-15.364 -29.127,-34.313" id="path750" />
        </clipPath>
        <clipPath clipPathUnits="userSpaceOnUse" id="clipPath772">
            <path d="M 0,500 H 750 V 0 H 0 Z" id="path770" />
        </clipPath>
        <clipPath clipPathUnits="userSpaceOnUse" id="clipPath784">
            <path d="m 437.17,197.415 h 57.916 v -6.307 H 437.17 Z" id="path782" />
        </clipPath>
        <clipPath clipPathUnits="userSpaceOnUse" id="clipPath842">
            <path d="m 459.654,298.582 h 8.299 v -9.755 h -8.299 z" id="path840" />
        </clipPath>
        <clipPath clipPathUnits="userSpaceOnUse" id="clipPath930">
            <path d="M 398.375,116.725 H 528.516 V 78.9082 H 398.375 Z" id="path928" />
        </clipPath>
        <clipPath clipPathUnits="userSpaceOnUse" id="clipPath958">
            <path d="m 699.089,295.374 h 16.282 v -10.25 h -16.282 z" id="path956" />
        </clipPath>
        <clipPath clipPathUnits="userSpaceOnUse" id="clipPath986">
            <path d="m 694.933,294.989 h 12.514 v -8.218 h -12.514 z" id="path984" />
        </clipPath>
        <clipPath clipPathUnits="userSpaceOnUse" id="clipPath1046">
            <path d="m 605.503,232.739 v -53.211 h 57.81 l 0.437,53.211 c 0,18.949 -13.037,34.313 -29.12,34.313 v 0 c -16.085,0 -29.127,-15.364 -29.127,-34.313" id="path1044" />
        </clipPath>
        <clipPath clipPathUnits="userSpaceOnUse" id="clipPath1066">
            <path d="M 0,500 H 750 V 0 H 0 Z" id="path1064" />
        </clipPath>
        <clipPath clipPathUnits="userSpaceOnUse" id="clipPath1078">
            <path d="m 605.503,197.415 h 57.916 v -6.307 h -57.916 z" id="path1076" />
        </clipPath>
        <clipPath clipPathUnits="userSpaceOnUse" id="clipPath1138">
            <path d="m 629.85,305.416 h 8.06 v -9.758 h -8.06 z" id="path1136" />
        </clipPath>
        <clipPath clipPathUnits="userSpaceOnUse" id="clipPath1226">
            <path d="M 567.407,116.725 H 697.548 V 78.9082 H 567.407 Z" id="path1224" />
        </clipPath>
        <clipPath clipPathUnits="userSpaceOnUse" id="clipPath18">
            <path d="m 173.674,168.213 -15.949,-17.512 c -7.082,-8.363 -11.331,-16.407 -9.491,-17.965 v 0 c 1.841,-1.559 9.074,3.959 16.155,12.322 v 0 c 0.914,1.079 1.779,2.151 2.591,3.204 v 0 c 0.412,-1.169 1.063,-2.164 1.965,-2.928 v 0 c 1.037,-0.879 2.319,-1.379 3.766,-1.536 v 0 c -0.972,-1.037 -1.956,-2.142 -2.937,-3.3 v 0 c -7.081,-8.364 -11.331,-16.407 -9.489,-17.965 v 0 c 1.84,-1.559 9.072,3.958 16.155,12.322 v 0 l 14.292,18.914 c 7.322,8.648 9.438,18.891 4.728,22.88 v 0 c -1.274,1.079 -2.917,1.589 -4.78,1.59 v 0 c -5.029,0 -11.664,-3.717 -17.006,-10.026" id="path16" />
        </clipPath>
        <clipPath clipPathUnits="userSpaceOnUse" id="clipPath30">
            <path d="m 142.475,141.358 h 13.88 v -13.681 h -13.88 z" id="path28" />
        </clipPath>
        <clipPath clipPathUnits="userSpaceOnUse" id="clipPath46">
            <path d="M 155.358,130.45 H 169.24 V 116.769 H 155.358 Z" id="path44" />
        </clipPath>
        <clipPath clipPathUnits="userSpaceOnUse" id="clipPath62">
            <path d="m 171.832,205.614 c -2.362,-0.894 -1.082,-10.054 2.86,-20.457 v 0 c 3.94,-10.403 9.048,-18.112 11.408,-17.217 v 0 c 2.363,0.894 1.083,10.053 -2.858,20.455 v 0 c -3.733,9.854 -8.511,17.29 -11.013,17.29 v 0 c -0.139,0 -0.272,-0.024 -0.397,-0.071" id="path60" />
        </clipPath>
        <clipPath clipPathUnits="userSpaceOnUse" id="clipPath74">
            <path d="m 162.619,215.16 h 20.104 v -19.895 h -20.104 z" id="path72" />
        </clipPath>
        <clipPath clipPathUnits="userSpaceOnUse" id="clipPath90">
            <path d="m 189.294,154.085 c -2.501,-10.84 -2.534,-20.089 -0.074,-20.655 v 0 c 2.46,-0.568 6.482,7.758 8.983,18.599 v 0 c 2.501,10.84 2.534,20.087 0.073,20.655 v 0 c -0.079,0.018 -0.16,0.027 -0.243,0.027 v 0 c -2.474,0 -6.319,-8.136 -8.739,-18.626" id="path88" />
        </clipPath>
        <clipPath clipPathUnits="userSpaceOnUse" id="clipPath102">
            <path d="m 180.081,144.022 h 19.834 v -20.163 h -19.834 z" id="path100" />
        </clipPath>
        <clipPath clipPathUnits="userSpaceOnUse" id="clipPath118">
            <path d="M 0,500 H 750 V 0 H 0 Z" id="path116" />
        </clipPath>
        <clipPath clipPathUnits="userSpaceOnUse" id="clipPath234">
            <path d="m 83.322,232.739 v -53.211 h 57.811 l 0.436,53.211 c 0,18.949 -13.038,34.313 -29.121,34.313 v 0 c -16.085,0 -29.126,-15.364 -29.126,-34.313" id="path232" />
        </clipPath>
        <clipPath clipPathUnits="userSpaceOnUse" id="clipPath254">
            <path d="M 0,500 H 750 V 0 H 0 Z" id="path252" />
        </clipPath>
        <clipPath clipPathUnits="userSpaceOnUse" id="clipPath266">
            <path d="m 83.3218,197.415 h 57.9162 v -6.307 H 83.3218 Z" id="path264" />
        </clipPath>
        <clipPath clipPathUnits="userSpaceOnUse" id="clipPath300">
            <path d="m 105.807,304.183 h 8.298 v -9.754 h -8.298 z" id="path298" />
        </clipPath>
        <clipPath clipPathUnits="userSpaceOnUse" id="clipPath380">
            <path d="M 44.8848,116.725 H 175.026 V 78.9082 H 44.8848 Z" id="path378" />
        </clipPath>
        <clipPath clipPathUnits="userSpaceOnUse" id="clipPath408">
            <path d="m 217.631,294.686 h 16.283 v -10.249 h -16.283 z" id="path406" />
        </clipPath>
        <clipPath clipPathUnits="userSpaceOnUse" id="clipPath432">
            <path d="m 225.556,294.301 h 12.514 v -8.218 h -12.514 z" id="path430" />
        </clipPath>
        <clipPath clipPathUnits="userSpaceOnUse" id="clipPath464">
            <path d="m 350.167,290.269 h 16.264 v -10.342 h -16.264 z" id="path462" />
        </clipPath>
        <clipPath clipPathUnits="userSpaceOnUse" id="clipPath488">
            <path d="m 345.984,290.168 h 12.599 v -7.764 h -12.599 z" id="path486" />
        </clipPath>
        <clipPath clipPathUnits="userSpaceOnUse" id="clipPath568">
            <path d="m 260.181,233.825 -3.47,-53.097 57.688,-3.77 3.906,53.069 c 1.235,18.909 -10.773,35.09 -26.822,36.138 v 0 c -0.548,0.036 -1.096,0.054 -1.638,0.054 v 0 c -15.357,0.001 -28.47,-14.131 -29.664,-32.394" id="path566" />
        </clipPath>
        <clipPath clipPathUnits="userSpaceOnUse" id="clipPath588">
            <path d="M 0,500 H 750 V 0 H 0 Z" id="path586" />
        </clipPath>
        <clipPath clipPathUnits="userSpaceOnUse" id="clipPath600">
            <path d="M 257.466,198.576 H 315.67 V 188.513 H 257.466 Z" id="path598" />
        </clipPath>
        <clipPath clipPathUnits="userSpaceOnUse" id="clipPath636">
            <path d="m 287.011,303.368 h 8.11 v -9.758 h -8.11 z" id="path634" />
        </clipPath>
        <clipPath clipPathUnits="userSpaceOnUse" id="clipPath692">
            <path d="M 208.455,116.725 H 338.596 V 78.9082 H 208.455 Z" id="path690" />
        </clipPath>
        <clipPath clipPathUnits="userSpaceOnUse" id="clipPath752">
            <path d="m 437.17,232.739 v -53.211 h 57.81 l 0.437,53.211 c 0,18.949 -13.038,34.313 -29.12,34.313 v 0 c -16.086,0 -29.127,-15.364 -29.127,-34.313" id="path750" />
        </clipPath>
        <clipPath clipPathUnits="userSpaceOnUse" id="clipPath772">
            <path d="M 0,500 H 750 V 0 H 0 Z" id="path770" />
        </clipPath>
        <clipPath clipPathUnits="userSpaceOnUse" id="clipPath784">
            <path d="m 437.17,197.415 h 57.916 v -6.307 H 437.17 Z" id="path782" />
        </clipPath>
        <clipPath clipPathUnits="userSpaceOnUse" id="clipPath842">
            <path d="m 459.654,298.582 h 8.299 v -9.755 h -8.299 z" id="path840" />
        </clipPath>
        <clipPath clipPathUnits="userSpaceOnUse" id="clipPath930">
            <path d="M 398.375,116.725 H 528.516 V 78.9082 H 398.375 Z" id="path928" />
        </clipPath>
        <clipPath clipPathUnits="userSpaceOnUse" id="clipPath958">
            <path d="m 699.089,295.374 h 16.282 v -10.25 h -16.282 z" id="path956" />
        </clipPath>
        <clipPath clipPathUnits="userSpaceOnUse" id="clipPath986">
            <path d="m 694.933,294.989 h 12.514 v -8.218 h -12.514 z" id="path984" />
        </clipPath>
        <clipPath clipPathUnits="userSpaceOnUse" id="clipPath1046">
            <path d="m 605.503,232.739 v -53.211 h 57.81 l 0.437,53.211 c 0,18.949 -13.037,34.313 -29.12,34.313 v 0 c -16.085,0 -29.127,-15.364 -29.127,-34.313" id="path1044" />
        </clipPath>
        <clipPath clipPathUnits="userSpaceOnUse" id="clipPath1066">
            <path d="M 0,500 H 750 V 0 H 0 Z" id="path1064" />
        </clipPath>
        <clipPath clipPathUnits="userSpaceOnUse" id="clipPath1078">
            <path d="m 605.503,197.415 h 57.916 v -6.307 h -57.916 z" id="path1076" />
        </clipPath>
        <clipPath clipPathUnits="userSpaceOnUse" id="clipPath1138">
            <path d="m 629.85,305.416 h 8.06 v -9.758 h -8.06 z" id="path1136" />
        </clipPath>
        <clipPath clipPathUnits="userSpaceOnUse" id="clipPath1226">
            <path d="M 567.407,116.725 H 697.548 V 78.9082 H 567.407 Z" id="path1224" />
        </clipPath>
    </defs>
    <g id="g8" transform="matrix(1.333333, 0, 0, -1.333333, -10.071934, 642.189209)">
        <g id="g14" clip-path="url(#clipPath18)" transform="matrix(1, 0, 0, 1, 6.969306, 36.246799)">
            <g id="g20" transform="translate(190.7319,153.769)">
                <path d="m 0,0 c 7.322,8.648 9.438,18.892 4.728,22.88 -4.711,3.989 -14.464,0.211 -21.786,-8.437 l -15.949,-17.51 c -7.082,-8.365 -11.331,-16.409 -9.492,-17.967 1.842,-1.558 9.075,3.959 16.157,12.323 0.913,1.079 1.778,2.151 2.59,3.204 0.412,-1.169 1.063,-2.164 1.965,-2.928 1.037,-0.878 2.319,-1.379 3.766,-1.535 -0.972,-1.038 -1.956,-2.142 -2.937,-3.301 -7.081,-8.364 -11.331,-16.407 -9.49,-17.965 1.841,-1.559 9.074,3.958 16.156,12.322 z" style="fill:#f26b80;fill-opacity:1;fill-rule:nonzero;stroke:none" id="path22" />
            </g>
            <g id="g24">
                <g id="g26" />
                <g id="g38">
                    <g clip-path="url(#clipPath30)" id="g36">
                        <g transform="translate(154.8999,129.873)" id="g34">
                            <path d="m 0,0 c -2.348,-2.773 -6.708,-2.942 -9.737,-0.378 -3.03,2.565 -3.581,6.893 -1.233,9.667 2.349,2.774 6.708,2.942 9.737,0.378 C 1.797,7.102 2.349,2.774 0,0" style="fill:#f26b80;fill-opacity:1;fill-rule:nonzero;stroke:none" id="path32" />
                        </g>
                    </g>
                </g>
            </g>
            <g id="g40">
                <g id="g42" />
                <g id="g54">
                    <g clip-path="url(#clipPath46)" id="g52">
                        <g transform="translate(167.7837,118.9648)" id="g50">
                            <path d="m 0,0 c -2.348,-2.773 -6.708,-2.943 -9.737,-0.378 -3.03,2.565 -3.581,6.893 -1.233,9.666 2.349,2.775 6.708,2.943 9.738,0.378 C 1.796,7.102 2.349,2.774 0,0" style="fill:#f26b80;fill-opacity:1;fill-rule:nonzero;stroke:none" id="path48" />
                        </g>
                    </g>
                </g>
            </g>
        </g>
        <g id="g56" style="" transform="matrix(1, 0, 0, 1, 6.969306, 36.246799)">
            <g id="g58" clip-path="url(#clipPath62)">
                <g id="g64" transform="translate(174.6914,185.1567)">
                    <path d="m 0,0 c -3.941,10.404 -5.221,19.563 -2.859,20.458 2.36,0.894 7.468,-6.815 11.41,-17.22 3.94,-10.402 5.22,-19.561 2.858,-20.455 C 9.049,-18.111 3.94,-10.403 0,0" style="fill:#f26b80;fill-opacity:1;fill-rule:nonzero;stroke:none" id="path66" />
                </g>
                <g id="g68">
                    <g id="g70" />
                    <g id="g82">
                        <g clip-path="url(#clipPath74)" id="g80">
                            <g transform="translate(166.3218,198.1582)" id="g78">
                                <path d="m 0,0 c -4.304,3.875 -4.949,10.172 -1.443,14.068 3.507,3.896 9.838,3.914 14.141,0.039 C 17.002,10.234 17.648,3.935 14.141,0.039 10.635,-3.855 4.303,-3.873 0,0" style="fill:#f26b80;fill-opacity:1;fill-rule:nonzero;stroke:none" id="path76" />
                            </g>
                        </g>
                    </g>
                </g>
            </g>
        </g>
        <g id="g84" style="" transform="matrix(1, 0, 0, 1, 6.969306, 36.246799)">
            <g id="g86" clip-path="url(#clipPath90)">
                <g id="g92" transform="translate(189.2944,154.0845)">
                    <path d="m 0,0 c -2.501,-10.84 -2.534,-20.088 -0.074,-20.654 2.46,-0.569 6.482,7.758 8.983,18.599 C 11.41,8.785 11.442,18.032 8.981,18.6 6.523,19.167 2.5,10.841 0,0" style="fill:#f26b80;fill-opacity:1;fill-rule:nonzero;stroke:none" id="path94" />
                </g>
                <g id="g96">
                    <g id="g98" />
                    <g id="g110">
                        <g clip-path="url(#clipPath102)" id="g108">
                            <g transform="translate(182.7554,140.0732)" id="g106">
                                <path d="m 0,0 c -3.742,-4.419 -3.532,-10.747 0.468,-14.133 4,-3.388 10.276,-2.551 14.017,1.868 3.742,4.419 3.532,10.747 -0.467,14.134 C 10.018,5.256 3.741,4.419 0,0" style="fill:#f26b80;fill-opacity:1;fill-rule:nonzero;stroke:none" id="path104" />
                            </g>
                        </g>
                    </g>
                </g>
            </g>
        </g>
        <g id="g114" clip-path="url(#clipPath118)" transform="matrix(1, 0, 0, 1, 6.969306, 36.246799)">
            <g id="g120" transform="translate(175.1753,163.2168)">
                <path d="m 0,0 c -4.834,-5.709 -6.427,-12.31 -3.556,-14.74 2.87,-2.431 9.118,0.228 13.952,5.938 4.834,5.71 6.426,12.308 3.556,14.739 C 11.081,8.368 4.834,5.709 0,0" style="fill:#f9e2a7;fill-opacity:1;fill-rule:nonzero;stroke:none" id="path122" />
            </g>
            <g id="g124" transform="translate(204.6807,198.7061)">
                <path d="m 0,0 c -2.533,-2.992 -7.013,-3.364 -10.004,-0.831 -2.993,2.534 -3.365,7.013 -0.831,10.005 2.533,2.992 7.012,3.364 10.004,0.831 C 2.161,7.471 2.533,2.992 0,0" style="fill:#f26b80;fill-opacity:1;fill-rule:nonzero;stroke:none" id="path126" />
            </g>
            <g id="g128" transform="translate(226.7803,179.9946)">
                <path d="m 0,0 c -2.534,-2.992 -7.013,-3.365 -10.004,-0.831 -2.993,2.533 -3.365,7.013 -0.83,10.005 2.532,2.992 7.012,3.364 10.003,0.829 C 2.162,7.471 2.533,2.991 0,0" style="fill:#f26b80;fill-opacity:1;fill-rule:nonzero;stroke:none" id="path130" />
            </g>
            <g id="g132" transform="translate(202.8062,200.293)">
                <path d="M 0,0 C -1.657,-1.957 -4.587,-2.2 -6.544,-0.543 -8.5,1.114 -8.744,4.043 -7.087,6 -5.431,7.958 -2.5,8.2 -0.543,6.543 1.413,4.887 1.657,1.957 0,0" style="fill:#f9e2a7;fill-opacity:1;fill-rule:nonzero;stroke:none" id="path134" />
            </g>
            <g id="g136" transform="translate(224.9062,181.5811)">
                <path d="M 0,0 C -1.657,-1.957 -4.587,-2.201 -6.544,-0.543 -8.5,1.113 -8.744,4.043 -7.087,6 -5.43,7.957 -2.5,8.2 -0.543,6.543 1.413,4.887 1.657,1.957 0,0" style="fill:#f9e2a7;fill-opacity:1;fill-rule:nonzero;stroke:none" id="path138" />
            </g>
            <g id="g140" transform="translate(184.5303,197.9976)">
                <path d="m 0,0 c -6.228,-7.355 -3.631,-19.792 5.801,-27.777 9.431,-7.985 22.125,-8.496 28.353,-1.141 6.228,7.356 3.631,19.793 -5.8,27.777 C 18.922,6.845 6.228,7.356 0,0" style="fill:#f26b80;fill-opacity:1;fill-rule:nonzero;stroke:none" id="path142" />
            </g>
            <g id="g144" transform="translate(198.4687,191.6279)">
                <path d="m 0,0 c -0.59,-0.696 -1.63,-0.783 -2.327,-0.193 -0.695,0.589 -0.782,1.63 -0.193,2.326 0.589,0.695 1.631,0.782 2.326,0.193 C 0.502,1.737 0.589,0.696 0,0" style="fill:#421313;fill-opacity:1;fill-rule:nonzero;stroke:none" id="path146" />
            </g>
            <g id="g148" transform="translate(211.939,180.2222)">
                <path d="m 0,0 c -0.589,-0.695 -1.631,-0.782 -2.326,-0.193 -0.696,0.589 -0.783,1.63 -0.193,2.326 0.588,0.696 1.63,0.783 2.326,0.194 C 0.503,1.737 0.589,0.696 0,0" style="fill:#421313;fill-opacity:1;fill-rule:nonzero;stroke:none" id="path150" />
            </g>
            <g id="g152" transform="translate(203.7046,179.6118)">
                <path d="M 0,0 C -0.586,-0.692 -2.475,-0.056 -4.219,1.421 -5.963,2.898 -6.902,4.656 -6.316,5.347 -5.73,6.04 -3.841,5.403 -2.097,3.927 -0.353,2.45 0.585,0.692 0,0" style="fill:#421313;fill-opacity:1;fill-rule:nonzero;stroke:none" id="path154" />
            </g>
            <g id="g156" transform="matrix(1, 0, 0, 1, 39.241699, 278.981415)">
                <path d="m 0,0 c 6.673,-27.124 41.113,-42.374 66.7,-43.204 10.381,-0.338 10.348,15.752 0,16.088 -10.144,0.329 -20.738,3.829 -29.971,8.701 C 27.506,-13.546 18.116,-6.299 15.514,4.277 13.036,14.348 -2.479,10.075 0,0" style="fill:#904434;fill-opacity:1;fill-rule:nonzero;stroke:none" id="path158" />
            </g>
            <g id="g160" transform="matrix(1, 0, 0, 1, 41.091801, 276.208496)">
                <path d="M 0,0 11.044,1.886 9.97,7.387 c 2.59,1.257 4.15,3.619 3.692,5.89 1.705,0.992 3.447,1.914 5.265,2.685 1.305,0.561 1.671,2.376 1.044,3.532 -0.721,1.332 -2.223,1.601 -3.527,1.045 -1.374,-0.583 -2.7,-1.257 -4.002,-1.977 l -0.484,2.074 c -0.095,0.414 -0.257,0.801 -0.473,1.156 0.328,2.215 0.985,4.365 1.627,6.514 0.964,3.223 -4.013,4.757 -4.974,1.545 C 7.601,28.045 7.075,26.227 6.682,24.383 6.606,24.395 6.527,24.395 6.453,24.398 5.855,26.748 5.211,29.09 4.482,31.408 3.476,34.587 -1.6,33.43 -0.589,30.23 0.112,28.018 0.727,25.787 1.3,23.542 L 0.318,23.316 c -0.89,2.14 -1.779,4.283 -2.669,6.422 -1.282,3.093 -5.849,0.587 -4.573,-2.485 0.757,-1.824 1.511,-3.649 2.273,-5.472 -0.087,-0.051 -0.169,-0.098 -0.253,-0.149 -1.402,1.147 -2.812,2.283 -3.999,3.658 -2.198,2.539 -5.976,-1.039 -3.782,-3.579 1.413,-1.634 3.141,-2.926 4.79,-4.314 -0.049,-0.45 -0.034,-0.908 0.07,-1.358 L -6.143,8.794 C -5.64,6.638 -3.433,5.208 -0.75,5.038 Z" style="fill:#904434;fill-opacity:1;fill-rule:nonzero;stroke:none" id="path162" />
            </g>
            <g id="g164" transform="translate(181.085,215.1675)">
                <path d="m 0,0 c -6.673,27.124 -41.113,42.374 -66.7,43.205 -10.381,0.337 -10.348,-15.753 0,-16.089 10.144,-0.329 20.738,-3.828 29.971,-8.701 9.223,-4.869 18.613,-12.116 21.215,-22.692 C -13.036,-14.348 2.479,-10.075 0,0" style="fill:#904434;fill-opacity:1;fill-rule:nonzero;stroke:none" id="path166" />
            </g>
            <g id="g168" transform="translate(77.7241,347.8042)">
                <path d="m 0,0 c -0.985,6.597 -5.117,15.536 -13.125,14.669 -1.604,-0.174 -3.003,-0.819 -4.13,-1.748 -3.761,3.834 -9.712,5.704 -14.772,3.395 -4.973,-2.269 -6.741,-6.709 -6.069,-10.918 -3.185,-2.089 -5.091,-5.445 -4.292,-9.742 0.292,-1.571 1.009,-2.704 1.959,-3.436 -3.394,-5.249 -0.751,-11.873 5.993,-15.449 3.608,-1.913 7.765,-2.456 11.558,-0.843 2.372,1.009 3.713,3.033 4.414,5.361 2.884,-2.253 6.847,-2.999 10.575,-1.149 C -1.337,-16.61 1.006,-6.731 0,0" style="fill:#240e10;fill-opacity:1;fill-rule:nonzero;stroke:none" id="path170" />
            </g>
            <g id="g172" transform="translate(59.1279,343.9556)">
                <path d="m 0,0 c 0,-10.394 8.426,-18.82 18.82,-18.82 10.393,0 18.819,8.426 18.819,18.82 0,10.394 -8.426,18.819 -18.819,18.819 C 8.426,18.819 0,10.394 0,0" style="fill:#f28916;fill-opacity:1;fill-rule:nonzero;stroke:none" id="path174" />
            </g>
            <g id="g176" transform="translate(147.2646,347.8042)">
                <path d="m 0,0 c 0.985,6.597 5.117,15.536 13.125,14.669 1.604,-0.174 3.003,-0.819 4.13,-1.748 3.761,3.834 9.712,5.704 14.771,3.395 4.974,-2.269 6.742,-6.709 6.07,-10.918 3.185,-2.089 5.09,-5.445 4.292,-9.742 -0.292,-1.571 -1.009,-2.704 -1.959,-3.436 3.393,-5.249 0.751,-11.873 -5.993,-15.449 -3.608,-1.913 -7.766,-2.456 -11.558,-0.843 -2.372,1.009 -3.713,3.033 -4.414,5.361 C 15.58,-20.964 11.617,-21.71 7.889,-19.86 1.337,-16.61 -1.006,-6.731 0,0" style="fill:#240e10;fill-opacity:1;fill-rule:nonzero;stroke:none" id="path178" />
            </g>
            <g id="g180" transform="translate(165.8604,343.9556)">
                <path d="m 0,0 c 0,-10.394 -8.426,-18.82 -18.819,-18.82 -10.394,0 -18.82,8.426 -18.82,18.82 0,10.394 8.426,18.819 18.82,18.819 C -8.426,18.819 0,10.394 0,0" style="fill:#f28916;fill-opacity:1;fill-rule:nonzero;stroke:none" id="path182" />
            </g>
            <g id="g184" transform="translate(55.897,311.397)">
                <path d="m 0,0 c 0,-3.753 2.928,-6.796 6.533,-6.796 3.609,0 6.534,3.043 6.534,6.796 0,3.754 -2.925,6.797 -6.534,6.797 C 2.928,6.797 0,3.754 0,0" style="fill:#904434;fill-opacity:1;fill-rule:nonzero;stroke:none" id="path186" />
            </g>
            <g id="g188" transform="translate(156.0229,311.397)">
                <path d="m 0,0 c 0,-3.753 2.929,-6.796 6.537,-6.796 3.608,0 6.531,3.043 6.531,6.796 0,3.754 -2.923,6.797 -6.531,6.797 C 2.929,6.797 0,3.754 0,0" style="fill:#904434;fill-opacity:1;fill-rule:nonzero;stroke:none" id="path190" />
            </g>
            <g id="g192" transform="translate(105.1294,107.1748)">
                <path d="m 0,0 c 1.683,-4.429 -4.251,-10.795 -13.256,-14.219 -9.006,-3.426 -17.671,-2.611 -19.356,1.818 -1.684,4.428 4.251,10.793 13.257,14.218 C -10.349,5.241 -1.684,4.429 0,0" style="fill:#627595;fill-opacity:1;fill-rule:nonzero;stroke:none" id="path194" />
            </g>
            <g id="g196" transform="translate(78.1514,101.2227)">
                <path d="m 0,0 c 1.416,-0.724 2.725,-1.641 4.141,-2.366 1.016,-0.522 1.914,1.01 0.896,1.533 C 3.621,-0.107 2.312,0.808 0.895,1.533 -0.122,2.053 -1.02,0.522 0,0" style="fill:#ffffff;fill-opacity:1;fill-rule:nonzero;stroke:none" id="path198" />
            </g>
            <g id="g200" transform="translate(83.3667,104.7729)">
                <path d="m 0,0 c 1.416,-0.726 2.725,-1.642 4.142,-2.367 1.017,-0.52 1.915,1.011 0.896,1.532 C 3.62,-0.11 2.313,0.807 0.895,1.533 -0.121,2.053 -1.019,0.522 0,0" style="fill:#ffffff;fill-opacity:1;fill-rule:nonzero;stroke:none" id="path202" />
            </g>
            <g id="g204" transform="translate(101.4658,190.7695)">
                <path d="m 0,0 c -6.278,0.295 -11.738,-6.627 -12.527,-15.646 l -0.04,0.002 0.002,-0.416 c -0.015,-0.211 -0.04,-0.42 -0.051,-0.632 -0.054,-1.182 -0.025,-2.337 0.078,-3.458 l 1.716,-62.322 c 0,0 5.492,-7.098 13.064,-1 l 7.892,73.377 C 8.471,-4.319 4.645,-0.218 0,0" style="fill:#904434;fill-opacity:1;fill-rule:nonzero;stroke:none" id="path206" />
            </g>
            <g id="g208" transform="translate(119.8359,107.1748)">
                <path d="m 0,0 c -1.683,-4.429 4.251,-10.795 13.256,-14.219 9.006,-3.426 17.671,-2.611 19.356,1.818 C 34.296,-7.973 28.361,-1.608 19.355,1.817 10.349,5.241 1.684,4.429 0,0" style="fill:#627595;fill-opacity:1;fill-rule:nonzero;stroke:none" id="path210" />
            </g>
            <g id="g212" transform="translate(146.814,101.2227)">
                <path d="m 0,0 c -1.416,-0.724 -2.725,-1.641 -4.141,-2.366 -1.016,-0.522 -1.914,1.01 -0.896,1.533 1.416,0.726 2.725,1.641 4.142,2.366 C 0.122,2.053 1.02,0.522 0,0" style="fill:#ffffff;fill-opacity:1;fill-rule:nonzero;stroke:none" id="path214" />
            </g>
            <g id="g216" transform="translate(141.5986,104.7729)">
                <path d="m 0,0 c -1.416,-0.726 -2.725,-1.642 -4.142,-2.367 -1.017,-0.52 -1.915,1.011 -0.896,1.532 1.418,0.725 2.725,1.642 4.143,2.368 C 0.121,2.053 1.019,0.522 0,0" style="fill:#ffffff;fill-opacity:1;fill-rule:nonzero;stroke:none" id="path218" />
            </g>
            <g id="g220" transform="translate(123.4995,190.7695)">
                <path d="m 0,0 c 6.278,0.295 11.738,-6.627 12.527,-15.646 l 0.04,0.002 -0.002,-0.416 c 0.015,-0.211 0.04,-0.42 0.051,-0.632 0.054,-1.182 0.025,-2.337 -0.078,-3.458 l -1.716,-62.322 c 0,0 -5.492,-7.098 -13.064,-1 l -7.892,73.377 C -8.471,-4.319 -4.645,-0.218 0,0" style="fill:#904434;fill-opacity:1;fill-rule:nonzero;stroke:none" id="path222" />
            </g>
            <g id="g224" transform="translate(141.1323,179.5283)">
                <path d="m 0,0 0.437,53.211 c 0,18.949 -13.038,34.312 -29.121,34.312 -16.085,0 -29.127,-15.363 -29.127,-34.312 l 0,-53.211 z" style="fill:#f28916;fill-opacity:1;fill-rule:nonzero;stroke:none" id="path226" />
            </g>
        </g>
        <g id="g228" style="" transform="matrix(1, 0, 0, 1, 6.969306, 36.246799)">
            <g id="g230" clip-path="url(#clipPath234)">
                <g id="g236" transform="translate(113.0718,261.5137)">
                    <path d="m 0,0 c 0,-3.87 -4.105,-7.008 -9.177,-7.008 -5.069,0 -9.179,3.138 -9.179,7.008 0,3.873 4.11,7.01 9.179,7.01 C -4.105,7.01 0,3.873 0,0" style="fill:#fdf7c3;fill-opacity:1;fill-rule:nonzero;stroke:none" id="path238" />
                </g>
                <g id="g240" transform="translate(130.1841,261.5137)">
                    <path d="m 0,0 c 0,-3.87 -4.105,-7.008 -9.177,-7.008 -5.069,0 -9.179,3.138 -9.179,7.008 0,3.873 4.11,7.01 9.179,7.01 C -4.105,7.01 0,3.873 0,0" style="fill:#fdf7c3;fill-opacity:1;fill-rule:nonzero;stroke:none" id="path242" />
                </g>
                <g id="g244" transform="translate(121.4219,267.9844)">
                    <path d="m 0,0 c 0,-3.871 -4.105,-7.008 -9.177,-7.008 -5.069,0 -9.179,3.137 -9.179,7.008 0,3.873 4.11,7.01 9.179,7.01 C -4.105,7.01 0,3.873 0,0" style="fill:#904434;fill-opacity:1;fill-rule:nonzero;stroke:none" id="path246" />
                </g>
            </g>
        </g>
        <g id="g248" transform="matrix(1, 0, 0, 1, 6.969306, 36.246799)">
            <g id="g250" clip-path="url(#clipPath254)">
                <path d="M 112.99 147.815 C 144.256 148.091 155.982 156.07 155.982 156.07 L 135.036 205.678 L 112.99 209.78 L 112.99 210.088 L 112.163 209.935 L 111.335 210.088 L 111.335 209.78 L 89.288 205.678 L 68.343 156.07 C 68.343 156.07 80.069 148.091 111.335 147.815 L 111.335 147.802 C 111.616 147.802 111.884 147.807 112.163 147.809 C 112.442 147.807 112.709 147.802 112.99 147.802 L 112.99 147.815 Z" style="fill:#f28916;fill-opacity:1;fill-rule:nonzero;stroke:none" id="path258" />
                <g id="g262" />
                <g id="g274">
                    <g clip-path="url(#clipPath266)" id="g272">
                        <g transform="translate(83.3218,197.4146)" id="g270">
                            <path d="M 0,0 V -6.306 H 57.811 L 57.917,0 Z" style="fill:#ad3260;fill-opacity:1;fill-rule:nonzero;stroke:none" id="path268" />
                        </g>
                    </g>
                </g>
                <g id="g276" transform="translate(116.6421,243.3491)">
                    <path d="m 0,0 c 0,-1.846 -1.497,-3.343 -3.343,-3.343 -1.846,0 -3.344,1.497 -3.344,3.343 0,1.846 1.498,3.343 3.344,3.343 C -1.497,3.343 0,1.846 0,0" style="fill:#fdf7c3;fill-opacity:1;fill-rule:nonzero;stroke:none" id="path278" />
                </g>
                <g id="g280" transform="translate(116.6421,226.7187)">
                    <path d="m 0,0 c 0,-1.847 -1.497,-3.344 -3.343,-3.344 -1.846,0 -3.344,1.497 -3.344,3.344 0,1.846 1.498,3.343 3.344,3.343 C -1.497,3.343 0,1.846 0,0" style="fill:#fdf7c3;fill-opacity:1;fill-rule:nonzero;stroke:none" id="path282" />
                </g>
                <g id="g284" transform="translate(116.6421,210.0879)">
                    <path d="m 0,0 c 0,-1.846 -1.497,-3.343 -3.343,-3.343 -1.846,0 -3.344,1.497 -3.344,3.343 0,1.846 1.498,3.343 3.344,3.343 C -1.497,3.343 0,1.846 0,0" style="fill:#fdf7c3;fill-opacity:1;fill-rule:nonzero;stroke:none" id="path286" />
                </g>
                <path d="m 118.183,264.046 h -11.466 v 28.426 h 11.466 z" style="fill:#904434;fill-opacity:1;fill-rule:nonzero;stroke:none" id="path288" />
                <g id="g290" transform="translate(156.7251,357.5425)">
                    <path d="m 0,0 c -1.81,17.852 -31.486,25.635 -46.806,25.521 -16.912,-0.134 -40.301,-7.118 -42.171,-25.544 -1.12,-11.052 -1.789,-22.206 -1.604,-33.309 0.166,-10.032 -0.666,-21.497 2.853,-31.146 11.273,-30.785 73.473,-29.465 86.086,-0.889 4.052,9.172 2.936,20.666 3.21,30.357 C 1.897,-23.351 1.181,-11.611 0,0" style="fill:#904434;fill-opacity:1;fill-rule:nonzero;stroke:none" id="path292" />
                </g>
                <g id="g294">
                    <g id="g296" />
                    <g id="g308">
                        <g clip-path="url(#clipPath300)" id="g306">
                            <g transform="translate(111.4136,304.127)" id="g304">
                                <path d="m 0,0 c -1.892,0.203 -3.993,-0.087 -5.072,-1.836 -0.884,-1.432 -0.544,-3.291 0.091,-4.738 0.603,-1.374 1.791,-2.682 3.291,-3.041 1.926,-0.461 3.417,1.066 4.284,2.593 0.447,0.785 -0.762,1.49 -1.207,0.705 -0.581,-1.021 -1.497,-2.238 -2.828,-1.919 -1.116,0.267 -1.878,1.397 -2.332,2.368 -0.448,0.958 -0.639,2.229 -0.157,3.207 0.7,1.421 2.588,1.406 3.93,1.262 C 0.896,-1.495 0.887,-0.095 0,0" style="fill:#904434;fill-opacity:1;fill-rule:nonzero;stroke:none" id="path302" />
                            </g>
                        </g>
                    </g>
                </g>
                <g id="g310" transform="translate(80.4126,331.958)">
                    <path d="M 0,0 C 2.175,1.576 5.369,3.73 8.132,2.387 11.58,0.714 14.607,5.861 11.145,7.542 6.232,9.925 1.193,8.205 -3.01,5.155 -6.094,2.917 -3.118,-2.267 0,0" style="fill:#240e10;fill-opacity:1;fill-rule:nonzero;stroke:none" id="path312" />
                </g>
                <g id="g314" transform="translate(142.667,331.958)">
                    <path d="M 0,0 C -2.172,1.576 -5.364,3.73 -8.129,2.387 -11.575,0.714 -14.604,5.861 -11.14,7.542 -6.227,9.925 -1.187,8.205 3.015,5.155 6.095,2.917 3.12,-2.267 0,0" style="fill:#240e10;fill-opacity:1;fill-rule:nonzero;stroke:none" id="path316" />
                </g>
                <g id="g318" transform="translate(73.3564,318.2681)">
                    <path d="m 0,0 c -1.457,15.046 0.403,30.042 2.196,44.975 0.717,5.963 -8.618,5.894 -9.326,0 C -8.924,30.042 -10.784,15.046 -9.327,0 -8.752,-5.931 0.58,-5.987 0,0" style="fill:#240e10;fill-opacity:1;fill-rule:nonzero;stroke:none" id="path320" />
                </g>
                <g id="g322" transform="translate(159.6494,318.2681)">
                    <path d="m 0,0 c 1.458,15.045 -0.401,30.042 -2.195,44.975 -0.708,5.894 -10.043,5.963 -9.326,0 C -9.728,30.042 -7.869,15.045 -9.327,0 -9.907,-5.987 -0.575,-5.931 0,0" style="fill:#240e10;fill-opacity:1;fill-rule:nonzero;stroke:none" id="path324" />
                </g>
                <g id="g326" transform="translate(104.5166,315.4531)">
                    <path d="m 0,0 c 0,-8.066 -6.358,-14.606 -14.205,-14.606 -7.849,0 -14.21,6.54 -14.21,14.606 0,8.06 6.361,14.602 14.21,14.602 C -6.358,14.602 0,8.06 0,0" style="fill:#240e10;fill-opacity:1;fill-rule:nonzero;stroke:none" id="path328" />
                </g>
                <g id="g330" transform="translate(104.5166,312.356)">
                    <path d="m 0,0 c 0,-8.066 -6.358,-14.606 -14.205,-14.606 -7.849,0 -14.21,6.54 -14.21,14.606 0,8.06 6.361,14.601 14.21,14.601 C -6.358,14.601 0,8.06 0,0" style="fill:#ffffff;fill-opacity:1;fill-rule:nonzero;stroke:none" id="path332" />
                </g>
                <g id="g334" transform="translate(87.769,322.1465)">
                    <path d="m 0,0 c -3.794,0 -7.067,-2.274 -8.644,-5.564 1.145,-0.425 1.965,-1.554 1.965,-2.883 0,-1.647 -1.262,-2.991 -2.842,-3.059 0.715,-4.775 4.702,-8.435 9.521,-8.435 5.324,0 9.642,4.461 9.642,9.971 C 9.642,-4.461 5.324,0 0,0" style="fill:#240e10;fill-opacity:1;fill-rule:nonzero;stroke:none" id="path336" />
                </g>
                <g id="g338" transform="translate(78.5488,321.2769)">
                    <path d="M 0,0 -4.134,3.582 -2.912,4.992 1.221,1.41 Z" style="fill:#240e10;fill-opacity:1;fill-rule:nonzero;stroke:none" id="path340" />
                </g>
                <g id="g342" transform="translate(146.9351,315.4531)">
                    <path d="m 0,0 c 0,-8.066 -6.356,-14.606 -14.203,-14.606 -7.852,0 -14.209,6.54 -14.209,14.606 0,8.06 6.357,14.602 14.209,14.602 C -6.356,14.602 0,8.06 0,0" style="fill:#240e10;fill-opacity:1;fill-rule:nonzero;stroke:none" id="path344" />
                </g>
                <g id="g346" transform="translate(146.9351,312.356)">
                    <path d="m 0,0 c 0,-8.066 -6.356,-14.606 -14.203,-14.606 -7.852,0 -14.209,6.54 -14.209,14.606 0,8.06 6.357,14.601 14.209,14.601 C -6.356,14.601 0,8.06 0,0" style="fill:#ffffff;fill-opacity:1;fill-rule:nonzero;stroke:none" id="path348" />
                </g>
                <g id="g350" transform="translate(130.189,322.1465)">
                    <path d="m 0,0 c -3.794,0 -7.067,-2.274 -8.643,-5.564 1.143,-0.425 1.964,-1.554 1.964,-2.883 0,-1.647 -1.263,-2.991 -2.843,-3.059 0.719,-4.775 4.701,-8.435 9.522,-8.435 5.323,0 9.642,4.461 9.642,9.971 C 9.642,-4.461 5.323,0 0,0" style="fill:#240e10;fill-opacity:1;fill-rule:nonzero;stroke:none" id="path352" />
                </g>
                <g id="g354" transform="translate(120.165,321.2769)">
                    <path d="M 0,0 -4.134,3.582 -2.913,4.992 1.221,1.41 Z" style="fill:#240e10;fill-opacity:1;fill-rule:nonzero;stroke:none" id="path356" />
                </g>
                <g id="g358" transform="translate(104.5161,290.5635)">
                    <path d="M 0,0 C 0,0 5.374,-5.788 14.055,-0.414 14.055,-0.414 6.614,-14.882 0,0" style="fill:#240e10;fill-opacity:1;fill-rule:nonzero;stroke:none" id="path360" />
                </g>
                <g id="g362" transform="translate(164.3516,379.521)">
                    <path d="m 0,0 c -2.89,11.127 -11.115,20.842 -23.089,21.71 -1.431,0.103 -3.146,0.123 -4.866,-0.06 -5.318,4.732 -15.686,5.602 -22.361,4.603 -7.15,-1.07 -12.545,-5.532 -16.885,-11.162 -2.306,-2.991 -3.124,-6.888 -2.571,-10.524 -7.011,-4.108 -8.001,-16.736 -5.363,-23.655 1.926,-5.053 6.671,-8.769 12.235,-8.138 2.341,0.267 4.375,1.137 6.1,2.417 3.197,-4.268 8.423,-7.184 13.746,-7.952 6.835,-0.987 12.577,1.497 15.816,6.17 5.874,-4.593 14.469,-6.417 20.567,-3.11 C 2.799,-24.564 2.285,-8.799 0,0" style="fill:#240e10;fill-opacity:1;fill-rule:nonzero;stroke:none" id="path364" />
                </g>
                <path d="M 95.154 392.725 C 89.544 399.714 79.278 400.977 72.115 395.885 C 67.785 392.807 64.954 388.058 65.03 383.689 C 59.643 378.043 59.013 366.399 64.979 361.55 C 72.018 355.829 81.776 360.14 86.609 367.005 C 91.79 365.472 97.11 366.916 99.622 372.923 C 102.415 379.601 99.389 387.448 95.154 392.725" style="fill:#240e10;fill-opacity:1;fill-rule:nonzero;stroke:none" id="path368" />
                <g id="g370" transform="translate(181.5679,210.3667)">
                    <path d="m 0,0 c -1.394,1.649 -3.263,2.975 -5.323,3.749 -4.132,1.552 -8.121,0.348 -11.514,-2.177 -2.697,-2.007 -6.133,-6.82 -0.427,-7.954 -3.388,-4.235 3.502,-10.344 6.481,-5.729 -1.396,-2.164 1.388,-4.174 3.215,-4.254 2.922,-0.129 3.034,1.929 4.003,4.056 0.268,-0.973 1.156,-2.054 2.206,-2.218 2.81,-0.441 3.293,3.33 3.588,5.254 C 2.738,-5.949 2.245,-2.657 0,0" style="fill:#904434;fill-opacity:1;fill-rule:nonzero;stroke:none" id="path372" />
                </g>
                <g id="g376" />
                <g id="g388">
                    <g clip-path="url(#clipPath380)" opacity="0.100006" id="g386">
                        <g transform="translate(175.0259,97.8164)" id="g384">
                            <path d="m 0,0 c 0,-10.442 -29.133,-18.908 -65.071,-18.908 -35.937,0 -65.07,8.466 -65.07,18.908 0,10.442 29.133,18.908 65.07,18.908 C -29.133,18.908 0,10.442 0,0" style="fill:#240e10;fill-opacity:1;fill-rule:nonzero;stroke:none" id="path382" />
                        </g>
                    </g>
                </g>
            </g>
        </g>
    </g>
</svg>