<?xml version="1.0" encoding="iso-8859-1"?>
<!-- Generator: Adobe Illustrator 19.0.0, SVG Export Plug-In . SVG Version: 6.00 Build 0)  -->
<svg version="1.1" id="Layer_1" xmlns="http://www.w3.org/2000/svg" xmlns:xlink="http://www.w3.org/1999/xlink" x="0px" y="0px"
	 viewBox="0 0 496.2 496.2" style="enable-background:new 0 0 496.2 496.2;" xml:space="preserve">
<path style="fill:#25B7D3;" d="M496.2,248.1C496.2,111.1,385.1,0,248.1,0S0,111.1,0,248.1s111.1,248.1,248.1,248.1
	S496.2,385.1,496.2,248.1z"/>
<g>
	<ellipse style="fill:#D9DBDB;" cx="248.1" cy="400.7" rx="79.8" ry="39.9"/>
	<rect x="168.3" y="95.5" style="fill:#D9DBDB;" width="159.6" height="305.9"/>
</g>
<rect x="175.2" y="96" style="fill:#F4F4EF;" width="145.8" height="287.3"/>
<rect x="175.2" y="237.2" style="fill:#B9E4EA;" width="145.8" height="146.1"/>
<rect x="175.2" y="237.2" style="fill:#9CC9D3;" width="72.9" height="146.1"/>
<ellipse style="fill:#A8D5DD;" cx="248.1" cy="238.4" rx="72.9" ry="36.5"/>
<path style="fill:#C2EEF2;" d="M321,238.4c0,20.1-32.7,36.5-72.9,36.5V202C288.4,202,321,218.3,321,238.4z"/>
<ellipse style="fill:#D9DBDB;" cx="248.1" cy="95.5" rx="79.8" ry="39.9"/>
<ellipse style="fill:#F4F4EF;" cx="248.1" cy="95.5" rx="73.1" ry="33"/>
<path style="fill:#EFEFE8;" d="M248.1,128.4c-40.4,0-73.1-14.8-73.1-33s32.7-33,73.1-33V128.4z"/>
<ellipse style="fill:#B9E4EA;" cx="248.1" cy="380.4" rx="72.9" ry="36.5"/>
<path style="fill:#9CC9D3;" d="M248.1,416.8c-40.3,0-72.9-16.3-72.9-36.5c0-20.1,32.7-36.5,72.9-36.5V416.8z"/>
<g>
</g>
<g>
</g>
<g>
</g>
<g>
</g>
<g>
</g>
<g>
</g>
<g>
</g>
<g>
</g>
<g>
</g>
<g>
</g>
<g>
</g>
<g>
</g>
<g>
</g>
<g>
</g>
<g>
</g>
</svg>
