<svg xmlns="http://www.w3.org/2000/svg" viewBox="508.028 53.852 225.049 447.547" width="225.049" height="447.547">
  <defs>
    <clipPath clipPathUnits="userSpaceOnUse" id="clipPath18">
      <path d="m 173.674,168.213 -15.949,-17.512 c -7.082,-8.363 -11.331,-16.407 -9.491,-17.965 v 0 c 1.841,-1.559 9.074,3.959 16.155,12.322 v 0 c 0.914,1.079 1.779,2.151 2.591,3.204 v 0 c 0.412,-1.169 1.063,-2.164 1.965,-2.928 v 0 c 1.037,-0.879 2.319,-1.379 3.766,-1.536 v 0 c -0.972,-1.037 -1.956,-2.142 -2.937,-3.3 v 0 c -7.081,-8.364 -11.331,-16.407 -9.489,-17.965 v 0 c 1.84,-1.559 9.072,3.958 16.155,12.322 v 0 l 14.292,18.914 c 7.322,8.648 9.438,18.891 4.728,22.88 v 0 c -1.274,1.079 -2.917,1.589 -4.78,1.59 v 0 c -5.029,0 -11.664,-3.717 -17.006,-10.026" id="path16" />
    </clipPath>
    <clipPath clipPathUnits="userSpaceOnUse" id="clipPath30">
      <path d="m 142.475,141.358 h 13.88 v -13.681 h -13.88 z" id="path28" />
    </clipPath>
    <clipPath clipPathUnits="userSpaceOnUse" id="clipPath46">
      <path d="M 155.358,130.45 H 169.24 V 116.769 H 155.358 Z" id="path44" />
    </clipPath>
    <clipPath clipPathUnits="userSpaceOnUse" id="clipPath62">
      <path d="m 171.832,205.614 c -2.362,-0.894 -1.082,-10.054 2.86,-20.457 v 0 c 3.94,-10.403 9.048,-18.112 11.408,-17.217 v 0 c 2.363,0.894 1.083,10.053 -2.858,20.455 v 0 c -3.733,9.854 -8.511,17.29 -11.013,17.29 v 0 c -0.139,0 -0.272,-0.024 -0.397,-0.071" id="path60" />
    </clipPath>
    <clipPath clipPathUnits="userSpaceOnUse" id="clipPath74">
      <path d="m 162.619,215.16 h 20.104 v -19.895 h -20.104 z" id="path72" />
    </clipPath>
    <clipPath clipPathUnits="userSpaceOnUse" id="clipPath90">
      <path d="m 189.294,154.085 c -2.501,-10.84 -2.534,-20.089 -0.074,-20.655 v 0 c 2.46,-0.568 6.482,7.758 8.983,18.599 v 0 c 2.501,10.84 2.534,20.087 0.073,20.655 v 0 c -0.079,0.018 -0.16,0.027 -0.243,0.027 v 0 c -2.474,0 -6.319,-8.136 -8.739,-18.626" id="path88" />
    </clipPath>
    <clipPath clipPathUnits="userSpaceOnUse" id="clipPath102">
      <path d="m 180.081,144.022 h 19.834 v -20.163 h -19.834 z" id="path100" />
    </clipPath>
    <clipPath clipPathUnits="userSpaceOnUse" id="clipPath118">
      <path d="M 0,500 H 750 V 0 H 0 Z" id="path116" />
    </clipPath>
    <clipPath clipPathUnits="userSpaceOnUse" id="clipPath234">
      <path d="m 83.322,232.739 v -53.211 h 57.811 l 0.436,53.211 c 0,18.949 -13.038,34.313 -29.121,34.313 v 0 c -16.085,0 -29.126,-15.364 -29.126,-34.313" id="path232" />
    </clipPath>
    <clipPath clipPathUnits="userSpaceOnUse" id="clipPath254">
      <path d="M 0,500 H 750 V 0 H 0 Z" id="path252" />
    </clipPath>
    <clipPath clipPathUnits="userSpaceOnUse" id="clipPath266">
      <path d="m 83.3218,197.415 h 57.9162 v -6.307 H 83.3218 Z" id="path264" />
    </clipPath>
    <clipPath clipPathUnits="userSpaceOnUse" id="clipPath300">
      <path d="m 105.807,304.183 h 8.298 v -9.754 h -8.298 z" id="path298" />
    </clipPath>
    <clipPath clipPathUnits="userSpaceOnUse" id="clipPath380">
      <path d="M 44.8848,116.725 H 175.026 V 78.9082 H 44.8848 Z" id="path378" />
    </clipPath>
    <clipPath clipPathUnits="userSpaceOnUse" id="clipPath408">
      <path d="m 217.631,294.686 h 16.283 v -10.249 h -16.283 z" id="path406" />
    </clipPath>
    <clipPath clipPathUnits="userSpaceOnUse" id="clipPath432">
      <path d="m 225.556,294.301 h 12.514 v -8.218 h -12.514 z" id="path430" />
    </clipPath>
    <clipPath clipPathUnits="userSpaceOnUse" id="clipPath464">
      <path d="m 350.167,290.269 h 16.264 v -10.342 h -16.264 z" id="path462" />
    </clipPath>
    <clipPath clipPathUnits="userSpaceOnUse" id="clipPath488">
      <path d="m 345.984,290.168 h 12.599 v -7.764 h -12.599 z" id="path486" />
    </clipPath>
    <clipPath clipPathUnits="userSpaceOnUse" id="clipPath568">
      <path d="m 260.181,233.825 -3.47,-53.097 57.688,-3.77 3.906,53.069 c 1.235,18.909 -10.773,35.09 -26.822,36.138 v 0 c -0.548,0.036 -1.096,0.054 -1.638,0.054 v 0 c -15.357,0.001 -28.47,-14.131 -29.664,-32.394" id="path566" />
    </clipPath>
    <clipPath clipPathUnits="userSpaceOnUse" id="clipPath588">
      <path d="M 0,500 H 750 V 0 H 0 Z" id="path586" />
    </clipPath>
    <clipPath clipPathUnits="userSpaceOnUse" id="clipPath600">
      <path d="M 257.466,198.576 H 315.67 V 188.513 H 257.466 Z" id="path598" />
    </clipPath>
    <clipPath clipPathUnits="userSpaceOnUse" id="clipPath636">
      <path d="m 287.011,303.368 h 8.11 v -9.758 h -8.11 z" id="path634" />
    </clipPath>
    <clipPath clipPathUnits="userSpaceOnUse" id="clipPath692">
      <path d="M 208.455,116.725 H 338.596 V 78.9082 H 208.455 Z" id="path690" />
    </clipPath>
    <clipPath clipPathUnits="userSpaceOnUse" id="clipPath752">
      <path d="m 437.17,232.739 v -53.211 h 57.81 l 0.437,53.211 c 0,18.949 -13.038,34.313 -29.12,34.313 v 0 c -16.086,0 -29.127,-15.364 -29.127,-34.313" id="path750" />
    </clipPath>
    <clipPath clipPathUnits="userSpaceOnUse" id="clipPath772">
      <path d="M 0,500 H 750 V 0 H 0 Z" id="path770" />
    </clipPath>
    <clipPath clipPathUnits="userSpaceOnUse" id="clipPath784">
      <path d="m 437.17,197.415 h 57.916 v -6.307 H 437.17 Z" id="path782" />
    </clipPath>
    <clipPath clipPathUnits="userSpaceOnUse" id="clipPath842">
      <path d="m 459.654,298.582 h 8.299 v -9.755 h -8.299 z" id="path840" />
    </clipPath>
    <clipPath clipPathUnits="userSpaceOnUse" id="clipPath930">
      <path d="M 398.375,116.725 H 528.516 V 78.9082 H 398.375 Z" id="path928" />
    </clipPath>
    <clipPath clipPathUnits="userSpaceOnUse" id="clipPath958">
      <path d="m 699.089,295.374 h 16.282 v -10.25 h -16.282 z" id="path956" />
    </clipPath>
    <clipPath clipPathUnits="userSpaceOnUse" id="clipPath986">
      <path d="m 694.933,294.989 h 12.514 v -8.218 h -12.514 z" id="path984" />
    </clipPath>
    <clipPath clipPathUnits="userSpaceOnUse" id="clipPath1046">
      <path d="m 605.503,232.739 v -53.211 h 57.81 l 0.437,53.211 c 0,18.949 -13.037,34.313 -29.12,34.313 v 0 c -16.085,0 -29.127,-15.364 -29.127,-34.313" id="path1044" />
    </clipPath>
    <clipPath clipPathUnits="userSpaceOnUse" id="clipPath1066">
      <path d="M 0,500 H 750 V 0 H 0 Z" id="path1064" />
    </clipPath>
    <clipPath clipPathUnits="userSpaceOnUse" id="clipPath1078">
      <path d="m 605.503,197.415 h 57.916 v -6.307 h -57.916 z" id="path1076" />
    </clipPath>
    <clipPath clipPathUnits="userSpaceOnUse" id="clipPath1138">
      <path d="m 629.85,305.416 h 8.06 v -9.758 h -8.06 z" id="path1136" />
    </clipPath>
    <clipPath clipPathUnits="userSpaceOnUse" id="clipPath1226">
      <path d="M 567.407,116.725 H 697.548 V 78.9082 H 567.407 Z" id="path1224" />
    </clipPath>
  </defs>
  <g id="g8" transform="matrix(1.333333, 0, 0, -1.333333, -10.071934, 642.189209)">
    <g id="g14" clip-path="url(#clipPath18)" transform="matrix(1, 0, 0, 1, 6.969306, 36.246799)">
      <g id="g20" transform="translate(190.7319,153.769)">
        <path d="m 0,0 c 7.322,8.648 9.438,18.892 4.728,22.88 -4.711,3.989 -14.464,0.211 -21.786,-8.437 l -15.949,-17.51 c -7.082,-8.365 -11.331,-16.409 -9.492,-17.967 1.842,-1.558 9.075,3.959 16.157,12.323 0.913,1.079 1.778,2.151 2.59,3.204 0.412,-1.169 1.063,-2.164 1.965,-2.928 1.037,-0.878 2.319,-1.379 3.766,-1.535 -0.972,-1.038 -1.956,-2.142 -2.937,-3.301 -7.081,-8.364 -11.331,-16.407 -9.49,-17.965 1.841,-1.559 9.074,3.958 16.156,12.322 z" style="fill:#f26b80;fill-opacity:1;fill-rule:nonzero;stroke:none" id="path22" />
      </g>
      <g id="g24">
        <g id="g26" />
        <g id="g38">
          <g clip-path="url(#clipPath30)" id="g36">
            <g transform="translate(154.8999,129.873)" id="g34">
              <path d="m 0,0 c -2.348,-2.773 -6.708,-2.942 -9.737,-0.378 -3.03,2.565 -3.581,6.893 -1.233,9.667 2.349,2.774 6.708,2.942 9.737,0.378 C 1.797,7.102 2.349,2.774 0,0" style="fill:#f26b80;fill-opacity:1;fill-rule:nonzero;stroke:none" id="path32" />
            </g>
          </g>
        </g>
      </g>
      <g id="g40">
        <g id="g42" />
        <g id="g54">
          <g clip-path="url(#clipPath46)" id="g52">
            <g transform="translate(167.7837,118.9648)" id="g50">
              <path d="m 0,0 c -2.348,-2.773 -6.708,-2.943 -9.737,-0.378 -3.03,2.565 -3.581,6.893 -1.233,9.666 2.349,2.775 6.708,2.943 9.738,0.378 C 1.796,7.102 2.349,2.774 0,0" style="fill:#f26b80;fill-opacity:1;fill-rule:nonzero;stroke:none" id="path48" />
            </g>
          </g>
        </g>
      </g>
    </g>
    <g id="g56" style="" transform="matrix(1, 0, 0, 1, 6.969306, 36.246799)">
      <g id="g58" clip-path="url(#clipPath62)">
        <g id="g64" transform="translate(174.6914,185.1567)">
          <path d="m 0,0 c -3.941,10.404 -5.221,19.563 -2.859,20.458 2.36,0.894 7.468,-6.815 11.41,-17.22 3.94,-10.402 5.22,-19.561 2.858,-20.455 C 9.049,-18.111 3.94,-10.403 0,0" style="fill:#f26b80;fill-opacity:1;fill-rule:nonzero;stroke:none" id="path66" />
        </g>
        <g id="g68">
          <g id="g70" />
          <g id="g82">
            <g clip-path="url(#clipPath74)" id="g80">
              <g transform="translate(166.3218,198.1582)" id="g78">
                <path d="m 0,0 c -4.304,3.875 -4.949,10.172 -1.443,14.068 3.507,3.896 9.838,3.914 14.141,0.039 C 17.002,10.234 17.648,3.935 14.141,0.039 10.635,-3.855 4.303,-3.873 0,0" style="fill:#f26b80;fill-opacity:1;fill-rule:nonzero;stroke:none" id="path76" />
              </g>
            </g>
          </g>
        </g>
      </g>
    </g>
    <g id="g84" style="" transform="matrix(1, 0, 0, 1, 6.969306, 36.246799)">
      <g id="g86" clip-path="url(#clipPath90)">
        <g id="g92" transform="translate(189.2944,154.0845)">
          <path d="m 0,0 c -2.501,-10.84 -2.534,-20.088 -0.074,-20.654 2.46,-0.569 6.482,7.758 8.983,18.599 C 11.41,8.785 11.442,18.032 8.981,18.6 6.523,19.167 2.5,10.841 0,0" style="fill:#f26b80;fill-opacity:1;fill-rule:nonzero;stroke:none" id="path94" />
        </g>
        <g id="g96">
          <g id="g98" />
          <g id="g110">
            <g clip-path="url(#clipPath102)" id="g108">
              <g transform="translate(182.7554,140.0732)" id="g106">
                <path d="m 0,0 c -3.742,-4.419 -3.532,-10.747 0.468,-14.133 4,-3.388 10.276,-2.551 14.017,1.868 3.742,4.419 3.532,10.747 -0.467,14.134 C 10.018,5.256 3.741,4.419 0,0" style="fill:#f26b80;fill-opacity:1;fill-rule:nonzero;stroke:none" id="path104" />
              </g>
            </g>
          </g>
        </g>
      </g>
    </g>
    <g id="g114" clip-path="url(#clipPath118)" transform="matrix(1, 0, 0, 1, 6.969306, 36.246799)">
      <g id="g120" transform="translate(175.1753,163.2168)">
        <path d="m 0,0 c -4.834,-5.709 -6.427,-12.31 -3.556,-14.74 2.87,-2.431 9.118,0.228 13.952,5.938 4.834,5.71 6.426,12.308 3.556,14.739 C 11.081,8.368 4.834,5.709 0,0" style="fill:#f9e2a7;fill-opacity:1;fill-rule:nonzero;stroke:none" id="path122" />
      </g>
      <g id="g124" transform="translate(204.6807,198.7061)">
        <path d="m 0,0 c -2.533,-2.992 -7.013,-3.364 -10.004,-0.831 -2.993,2.534 -3.365,7.013 -0.831,10.005 2.533,2.992 7.012,3.364 10.004,0.831 C 2.161,7.471 2.533,2.992 0,0" style="fill:#f26b80;fill-opacity:1;fill-rule:nonzero;stroke:none" id="path126" />
      </g>
      <g id="g128" transform="translate(226.7803,179.9946)">
        <path d="m 0,0 c -2.534,-2.992 -7.013,-3.365 -10.004,-0.831 -2.993,2.533 -3.365,7.013 -0.83,10.005 2.532,2.992 7.012,3.364 10.003,0.829 C 2.162,7.471 2.533,2.991 0,0" style="fill:#f26b80;fill-opacity:1;fill-rule:nonzero;stroke:none" id="path130" />
      </g>
      <g id="g132" transform="translate(202.8062,200.293)">
        <path d="M 0,0 C -1.657,-1.957 -4.587,-2.2 -6.544,-0.543 -8.5,1.114 -8.744,4.043 -7.087,6 -5.431,7.958 -2.5,8.2 -0.543,6.543 1.413,4.887 1.657,1.957 0,0" style="fill:#f9e2a7;fill-opacity:1;fill-rule:nonzero;stroke:none" id="path134" />
      </g>
      <g id="g136" transform="translate(224.9062,181.5811)">
        <path d="M 0,0 C -1.657,-1.957 -4.587,-2.201 -6.544,-0.543 -8.5,1.113 -8.744,4.043 -7.087,6 -5.43,7.957 -2.5,8.2 -0.543,6.543 1.413,4.887 1.657,1.957 0,0" style="fill:#f9e2a7;fill-opacity:1;fill-rule:nonzero;stroke:none" id="path138" />
      </g>
      <g id="g140" transform="translate(184.5303,197.9976)">
        <path d="m 0,0 c -6.228,-7.355 -3.631,-19.792 5.801,-27.777 9.431,-7.985 22.125,-8.496 28.353,-1.141 6.228,7.356 3.631,19.793 -5.8,27.777 C 18.922,6.845 6.228,7.356 0,0" style="fill:#f26b80;fill-opacity:1;fill-rule:nonzero;stroke:none" id="path142" />
      </g>
      <g id="g144" transform="translate(198.4687,191.6279)">
        <path d="m 0,0 c -0.59,-0.696 -1.63,-0.783 -2.327,-0.193 -0.695,0.589 -0.782,1.63 -0.193,2.326 0.589,0.695 1.631,0.782 2.326,0.193 C 0.502,1.737 0.589,0.696 0,0" style="fill:#421313;fill-opacity:1;fill-rule:nonzero;stroke:none" id="path146" />
      </g>
      <g id="g148" transform="translate(211.939,180.2222)">
        <path d="m 0,0 c -0.589,-0.695 -1.631,-0.782 -2.326,-0.193 -0.696,0.589 -0.783,1.63 -0.193,2.326 0.588,0.696 1.63,0.783 2.326,0.194 C 0.503,1.737 0.589,0.696 0,0" style="fill:#421313;fill-opacity:1;fill-rule:nonzero;stroke:none" id="path150" />
      </g>
      <g id="g152" transform="translate(203.7046,179.6118)">
        <path d="M 0,0 C -0.586,-0.692 -2.475,-0.056 -4.219,1.421 -5.963,2.898 -6.902,4.656 -6.316,5.347 -5.73,6.04 -3.841,5.403 -2.097,3.927 -0.353,2.45 0.585,0.692 0,0" style="fill:#421313;fill-opacity:1;fill-rule:nonzero;stroke:none" id="path154" />
      </g>
      <g id="g156" transform="matrix(1, 0, 0, 1, 39.241699, 278.981415)">
        <path d="m 0,0 c 6.673,-27.124 41.113,-42.374 66.7,-43.204 10.381,-0.338 10.348,15.752 0,16.088 -10.144,0.329 -20.738,3.829 -29.971,8.701 C 27.506,-13.546 18.116,-6.299 15.514,4.277 13.036,14.348 -2.479,10.075 0,0" style="fill:#904434;fill-opacity:1;fill-rule:nonzero;stroke:none" id="path158" />
      </g>
      <g id="g160" transform="matrix(1, 0, 0, 1, 41.091801, 276.208496)">
        <path d="M 0,0 11.044,1.886 9.97,7.387 c 2.59,1.257 4.15,3.619 3.692,5.89 1.705,0.992 3.447,1.914 5.265,2.685 1.305,0.561 1.671,2.376 1.044,3.532 -0.721,1.332 -2.223,1.601 -3.527,1.045 -1.374,-0.583 -2.7,-1.257 -4.002,-1.977 l -0.484,2.074 c -0.095,0.414 -0.257,0.801 -0.473,1.156 0.328,2.215 0.985,4.365 1.627,6.514 0.964,3.223 -4.013,4.757 -4.974,1.545 C 7.601,28.045 7.075,26.227 6.682,24.383 6.606,24.395 6.527,24.395 6.453,24.398 5.855,26.748 5.211,29.09 4.482,31.408 3.476,34.587 -1.6,33.43 -0.589,30.23 0.112,28.018 0.727,25.787 1.3,23.542 L 0.318,23.316 c -0.89,2.14 -1.779,4.283 -2.669,6.422 -1.282,3.093 -5.849,0.587 -4.573,-2.485 0.757,-1.824 1.511,-3.649 2.273,-5.472 -0.087,-0.051 -0.169,-0.098 -0.253,-0.149 -1.402,1.147 -2.812,2.283 -3.999,3.658 -2.198,2.539 -5.976,-1.039 -3.782,-3.579 1.413,-1.634 3.141,-2.926 4.79,-4.314 -0.049,-0.45 -0.034,-0.908 0.07,-1.358 L -6.143,8.794 C -5.64,6.638 -3.433,5.208 -0.75,5.038 Z" style="fill:#904434;fill-opacity:1;fill-rule:nonzero;stroke:none" id="path162" />
      </g>
      <g id="g164" transform="translate(181.085,215.1675)">
        <path d="m 0,0 c -6.673,27.124 -41.113,42.374 -66.7,43.205 -10.381,0.337 -10.348,-15.753 0,-16.089 10.144,-0.329 20.738,-3.828 29.971,-8.701 9.223,-4.869 18.613,-12.116 21.215,-22.692 C -13.036,-14.348 2.479,-10.075 0,0" style="fill:#904434;fill-opacity:1;fill-rule:nonzero;stroke:none" id="path166" />
      </g>
      <g id="g168" transform="translate(77.7241,347.8042)">
        <path d="m 0,0 c -0.985,6.597 -5.117,15.536 -13.125,14.669 -1.604,-0.174 -3.003,-0.819 -4.13,-1.748 -3.761,3.834 -9.712,5.704 -14.772,3.395 -4.973,-2.269 -6.741,-6.709 -6.069,-10.918 -3.185,-2.089 -5.091,-5.445 -4.292,-9.742 0.292,-1.571 1.009,-2.704 1.959,-3.436 -3.394,-5.249 -0.751,-11.873 5.993,-15.449 3.608,-1.913 7.765,-2.456 11.558,-0.843 2.372,1.009 3.713,3.033 4.414,5.361 2.884,-2.253 6.847,-2.999 10.575,-1.149 C -1.337,-16.61 1.006,-6.731 0,0" style="fill:#240e10;fill-opacity:1;fill-rule:nonzero;stroke:none" id="path170" />
      </g>
      <g id="g172" transform="translate(59.1279,343.9556)">
        <path d="m 0,0 c 0,-10.394 8.426,-18.82 18.82,-18.82 10.393,0 18.819,8.426 18.819,18.82 0,10.394 -8.426,18.819 -18.819,18.819 C 8.426,18.819 0,10.394 0,0" style="fill:#f28916;fill-opacity:1;fill-rule:nonzero;stroke:none" id="path174" />
      </g>
      <g id="g176" transform="translate(147.2646,347.8042)">
        <path d="m 0,0 c 0.985,6.597 5.117,15.536 13.125,14.669 1.604,-0.174 3.003,-0.819 4.13,-1.748 3.761,3.834 9.712,5.704 14.771,3.395 4.974,-2.269 6.742,-6.709 6.07,-10.918 3.185,-2.089 5.09,-5.445 4.292,-9.742 -0.292,-1.571 -1.009,-2.704 -1.959,-3.436 3.393,-5.249 0.751,-11.873 -5.993,-15.449 -3.608,-1.913 -7.766,-2.456 -11.558,-0.843 -2.372,1.009 -3.713,3.033 -4.414,5.361 C 15.58,-20.964 11.617,-21.71 7.889,-19.86 1.337,-16.61 -1.006,-6.731 0,0" style="fill:#240e10;fill-opacity:1;fill-rule:nonzero;stroke:none" id="path178" />
      </g>
      <g id="g180" transform="translate(165.8604,343.9556)">
        <path d="m 0,0 c 0,-10.394 -8.426,-18.82 -18.819,-18.82 -10.394,0 -18.82,8.426 -18.82,18.82 0,10.394 8.426,18.819 18.82,18.819 C -8.426,18.819 0,10.394 0,0" style="fill:#f28916;fill-opacity:1;fill-rule:nonzero;stroke:none" id="path182" />
      </g>
      <g id="g184" transform="translate(55.897,311.397)">
        <path d="m 0,0 c 0,-3.753 2.928,-6.796 6.533,-6.796 3.609,0 6.534,3.043 6.534,6.796 0,3.754 -2.925,6.797 -6.534,6.797 C 2.928,6.797 0,3.754 0,0" style="fill:#904434;fill-opacity:1;fill-rule:nonzero;stroke:none" id="path186" />
      </g>
      <g id="g188" transform="translate(156.0229,311.397)">
        <path d="m 0,0 c 0,-3.753 2.929,-6.796 6.537,-6.796 3.608,0 6.531,3.043 6.531,6.796 0,3.754 -2.923,6.797 -6.531,6.797 C 2.929,6.797 0,3.754 0,0" style="fill:#904434;fill-opacity:1;fill-rule:nonzero;stroke:none" id="path190" />
      </g>
      <g id="g192" transform="translate(105.1294,107.1748)">
        <path d="m 0,0 c 1.683,-4.429 -4.251,-10.795 -13.256,-14.219 -9.006,-3.426 -17.671,-2.611 -19.356,1.818 -1.684,4.428 4.251,10.793 13.257,14.218 C -10.349,5.241 -1.684,4.429 0,0" style="fill:#627595;fill-opacity:1;fill-rule:nonzero;stroke:none" id="path194" />
      </g>
      <g id="g196" transform="translate(78.1514,101.2227)">
        <path d="m 0,0 c 1.416,-0.724 2.725,-1.641 4.141,-2.366 1.016,-0.522 1.914,1.01 0.896,1.533 C 3.621,-0.107 2.312,0.808 0.895,1.533 -0.122,2.053 -1.02,0.522 0,0" style="fill:#ffffff;fill-opacity:1;fill-rule:nonzero;stroke:none" id="path198" />
      </g>
      <g id="g200" transform="translate(83.3667,104.7729)">
        <path d="m 0,0 c 1.416,-0.726 2.725,-1.642 4.142,-2.367 1.017,-0.52 1.915,1.011 0.896,1.532 C 3.62,-0.11 2.313,0.807 0.895,1.533 -0.121,2.053 -1.019,0.522 0,0" style="fill:#ffffff;fill-opacity:1;fill-rule:nonzero;stroke:none" id="path202" />
      </g>
      <g id="g204" transform="translate(101.4658,190.7695)">
        <path d="m 0,0 c -6.278,0.295 -11.738,-6.627 -12.527,-15.646 l -0.04,0.002 0.002,-0.416 c -0.015,-0.211 -0.04,-0.42 -0.051,-0.632 -0.054,-1.182 -0.025,-2.337 0.078,-3.458 l 1.716,-62.322 c 0,0 5.492,-7.098 13.064,-1 l 7.892,73.377 C 8.471,-4.319 4.645,-0.218 0,0" style="fill:#904434;fill-opacity:1;fill-rule:nonzero;stroke:none" id="path206" />
      </g>
      <g id="g208" transform="translate(119.8359,107.1748)">
        <path d="m 0,0 c -1.683,-4.429 4.251,-10.795 13.256,-14.219 9.006,-3.426 17.671,-2.611 19.356,1.818 C 34.296,-7.973 28.361,-1.608 19.355,1.817 10.349,5.241 1.684,4.429 0,0" style="fill:#627595;fill-opacity:1;fill-rule:nonzero;stroke:none" id="path210" />
      </g>
      <g id="g212" transform="translate(146.814,101.2227)">
        <path d="m 0,0 c -1.416,-0.724 -2.725,-1.641 -4.141,-2.366 -1.016,-0.522 -1.914,1.01 -0.896,1.533 1.416,0.726 2.725,1.641 4.142,2.366 C 0.122,2.053 1.02,0.522 0,0" style="fill:#ffffff;fill-opacity:1;fill-rule:nonzero;stroke:none" id="path214" />
      </g>
      <g id="g216" transform="translate(141.5986,104.7729)">
        <path d="m 0,0 c -1.416,-0.726 -2.725,-1.642 -4.142,-2.367 -1.017,-0.52 -1.915,1.011 -0.896,1.532 1.418,0.725 2.725,1.642 4.143,2.368 C 0.121,2.053 1.019,0.522 0,0" style="fill:#ffffff;fill-opacity:1;fill-rule:nonzero;stroke:none" id="path218" />
      </g>
      <g id="g220" transform="translate(123.4995,190.7695)">
        <path d="m 0,0 c 6.278,0.295 11.738,-6.627 12.527,-15.646 l 0.04,0.002 -0.002,-0.416 c 0.015,-0.211 0.04,-0.42 0.051,-0.632 0.054,-1.182 0.025,-2.337 -0.078,-3.458 l -1.716,-62.322 c 0,0 -5.492,-7.098 -13.064,-1 l -7.892,73.377 C -8.471,-4.319 -4.645,-0.218 0,0" style="fill:#904434;fill-opacity:1;fill-rule:nonzero;stroke:none" id="path222" />
      </g>
      <g id="g224" transform="translate(141.1323,179.5283)">
        <path d="m 0,0 0.437,53.211 c 0,18.949 -13.038,34.312 -29.121,34.312 -16.085,0 -29.127,-15.363 -29.127,-34.312 l 0,-53.211 z" style="fill:#f28916;fill-opacity:1;fill-rule:nonzero;stroke:none" id="path226" />
      </g>
    </g>
    <g id="g228" style="" transform="matrix(1, 0, 0, 1, 6.969306, 36.246799)">
      <g id="g230" clip-path="url(#clipPath234)">
        <g id="g236" transform="translate(113.0718,261.5137)">
          <path d="m 0,0 c 0,-3.87 -4.105,-7.008 -9.177,-7.008 -5.069,0 -9.179,3.138 -9.179,7.008 0,3.873 4.11,7.01 9.179,7.01 C -4.105,7.01 0,3.873 0,0" style="fill:#fdf7c3;fill-opacity:1;fill-rule:nonzero;stroke:none" id="path238" />
        </g>
        <g id="g240" transform="translate(130.1841,261.5137)">
          <path d="m 0,0 c 0,-3.87 -4.105,-7.008 -9.177,-7.008 -5.069,0 -9.179,3.138 -9.179,7.008 0,3.873 4.11,7.01 9.179,7.01 C -4.105,7.01 0,3.873 0,0" style="fill:#fdf7c3;fill-opacity:1;fill-rule:nonzero;stroke:none" id="path242" />
        </g>
        <g id="g244" transform="translate(121.4219,267.9844)">
          <path d="m 0,0 c 0,-3.871 -4.105,-7.008 -9.177,-7.008 -5.069,0 -9.179,3.137 -9.179,7.008 0,3.873 4.11,7.01 9.179,7.01 C -4.105,7.01 0,3.873 0,0" style="fill:#904434;fill-opacity:1;fill-rule:nonzero;stroke:none" id="path246" />
        </g>
      </g>
    </g>
    <g id="g248" transform="matrix(1, 0, 0, 1, 6.969306, 36.246799)">
      <g id="g250" clip-path="url(#clipPath254)">
        <path d="M 112.99 147.815 C 144.256 148.091 155.982 156.07 155.982 156.07 L 135.036 205.678 L 112.99 209.78 L 112.99 210.088 L 112.163 209.935 L 111.335 210.088 L 111.335 209.78 L 89.288 205.678 L 68.343 156.07 C 68.343 156.07 80.069 148.091 111.335 147.815 L 111.335 147.802 C 111.616 147.802 111.884 147.807 112.163 147.809 C 112.442 147.807 112.709 147.802 112.99 147.802 L 112.99 147.815 Z" style="fill:#f28916;fill-opacity:1;fill-rule:nonzero;stroke:none" id="path258" />
        <g id="g262" />
        <g id="g274">
          <g clip-path="url(#clipPath266)" id="g272">
            <g transform="translate(83.3218,197.4146)" id="g270">
              <path d="M 0,0 V -6.306 H 57.811 L 57.917,0 Z" style="fill:#ad3260;fill-opacity:1;fill-rule:nonzero;stroke:none" id="path268" />
            </g>
          </g>
        </g>
        <g id="g276" transform="translate(116.6421,243.3491)">
          <path d="m 0,0 c 0,-1.846 -1.497,-3.343 -3.343,-3.343 -1.846,0 -3.344,1.497 -3.344,3.343 0,1.846 1.498,3.343 3.344,3.343 C -1.497,3.343 0,1.846 0,0" style="fill:#fdf7c3;fill-opacity:1;fill-rule:nonzero;stroke:none" id="path278" />
        </g>
        <g id="g280" transform="translate(116.6421,226.7187)">
          <path d="m 0,0 c 0,-1.847 -1.497,-3.344 -3.343,-3.344 -1.846,0 -3.344,1.497 -3.344,3.344 0,1.846 1.498,3.343 3.344,3.343 C -1.497,3.343 0,1.846 0,0" style="fill:#fdf7c3;fill-opacity:1;fill-rule:nonzero;stroke:none" id="path282" />
        </g>
        <g id="g284" transform="translate(116.6421,210.0879)">
          <path d="m 0,0 c 0,-1.846 -1.497,-3.343 -3.343,-3.343 -1.846,0 -3.344,1.497 -3.344,3.343 0,1.846 1.498,3.343 3.344,3.343 C -1.497,3.343 0,1.846 0,0" style="fill:#fdf7c3;fill-opacity:1;fill-rule:nonzero;stroke:none" id="path286" />
        </g>
        <path d="m 118.183,264.046 h -11.466 v 28.426 h 11.466 z" style="fill:#904434;fill-opacity:1;fill-rule:nonzero;stroke:none" id="path288" />
        <g id="g290" transform="translate(156.7251,357.5425)">
          <path d="m 0,0 c -1.81,17.852 -31.486,25.635 -46.806,25.521 -16.912,-0.134 -40.301,-7.118 -42.171,-25.544 -1.12,-11.052 -1.789,-22.206 -1.604,-33.309 0.166,-10.032 -0.666,-21.497 2.853,-31.146 11.273,-30.785 73.473,-29.465 86.086,-0.889 4.052,9.172 2.936,20.666 3.21,30.357 C 1.897,-23.351 1.181,-11.611 0,0" style="fill:#904434;fill-opacity:1;fill-rule:nonzero;stroke:none" id="path292" />
        </g>
        <g id="g294">
          <g id="g296" />
          <g id="g308">
            <g clip-path="url(#clipPath300)" id="g306">
              <g transform="translate(111.4136,304.127)" id="g304">
                <path d="m 0,0 c -1.892,0.203 -3.993,-0.087 -5.072,-1.836 -0.884,-1.432 -0.544,-3.291 0.091,-4.738 0.603,-1.374 1.791,-2.682 3.291,-3.041 1.926,-0.461 3.417,1.066 4.284,2.593 0.447,0.785 -0.762,1.49 -1.207,0.705 -0.581,-1.021 -1.497,-2.238 -2.828,-1.919 -1.116,0.267 -1.878,1.397 -2.332,2.368 -0.448,0.958 -0.639,2.229 -0.157,3.207 0.7,1.421 2.588,1.406 3.93,1.262 C 0.896,-1.495 0.887,-0.095 0,0" style="fill:#904434;fill-opacity:1;fill-rule:nonzero;stroke:none" id="path302" />
              </g>
            </g>
          </g>
        </g>
        <g id="g310" transform="translate(80.4126,331.958)">
          <path d="M 0,0 C 2.175,1.576 5.369,3.73 8.132,2.387 11.58,0.714 14.607,5.861 11.145,7.542 6.232,9.925 1.193,8.205 -3.01,5.155 -6.094,2.917 -3.118,-2.267 0,0" style="fill:#240e10;fill-opacity:1;fill-rule:nonzero;stroke:none" id="path312" />
        </g>
        <g id="g314" transform="translate(142.667,331.958)">
          <path d="M 0,0 C -2.172,1.576 -5.364,3.73 -8.129,2.387 -11.575,0.714 -14.604,5.861 -11.14,7.542 -6.227,9.925 -1.187,8.205 3.015,5.155 6.095,2.917 3.12,-2.267 0,0" style="fill:#240e10;fill-opacity:1;fill-rule:nonzero;stroke:none" id="path316" />
        </g>
        <g id="g318" transform="translate(73.3564,318.2681)">
          <path d="m 0,0 c -1.457,15.046 0.403,30.042 2.196,44.975 0.717,5.963 -8.618,5.894 -9.326,0 C -8.924,30.042 -10.784,15.046 -9.327,0 -8.752,-5.931 0.58,-5.987 0,0" style="fill:#240e10;fill-opacity:1;fill-rule:nonzero;stroke:none" id="path320" />
        </g>
        <g id="g322" transform="translate(159.6494,318.2681)">
          <path d="m 0,0 c 1.458,15.045 -0.401,30.042 -2.195,44.975 -0.708,5.894 -10.043,5.963 -9.326,0 C -9.728,30.042 -7.869,15.045 -9.327,0 -9.907,-5.987 -0.575,-5.931 0,0" style="fill:#240e10;fill-opacity:1;fill-rule:nonzero;stroke:none" id="path324" />
        </g>
        <g id="g326" transform="translate(104.5166,315.4531)">
          <path d="m 0,0 c 0,-8.066 -6.358,-14.606 -14.205,-14.606 -7.849,0 -14.21,6.54 -14.21,14.606 0,8.06 6.361,14.602 14.21,14.602 C -6.358,14.602 0,8.06 0,0" style="fill:#240e10;fill-opacity:1;fill-rule:nonzero;stroke:none" id="path328" />
        </g>
        <g id="g330" transform="translate(104.5166,312.356)">
          <path d="m 0,0 c 0,-8.066 -6.358,-14.606 -14.205,-14.606 -7.849,0 -14.21,6.54 -14.21,14.606 0,8.06 6.361,14.601 14.21,14.601 C -6.358,14.601 0,8.06 0,0" style="fill:#ffffff;fill-opacity:1;fill-rule:nonzero;stroke:none" id="path332" />
        </g>
        <g id="g334" transform="translate(87.769,322.1465)">
          <path d="m 0,0 c -3.794,0 -7.067,-2.274 -8.644,-5.564 1.145,-0.425 1.965,-1.554 1.965,-2.883 0,-1.647 -1.262,-2.991 -2.842,-3.059 0.715,-4.775 4.702,-8.435 9.521,-8.435 5.324,0 9.642,4.461 9.642,9.971 C 9.642,-4.461 5.324,0 0,0" style="fill:#240e10;fill-opacity:1;fill-rule:nonzero;stroke:none" id="path336" />
        </g>
        <g id="g338" transform="translate(78.5488,321.2769)">
          <path d="M 0,0 -4.134,3.582 -2.912,4.992 1.221,1.41 Z" style="fill:#240e10;fill-opacity:1;fill-rule:nonzero;stroke:none" id="path340" />
        </g>
        <g id="g342" transform="translate(146.9351,315.4531)">
          <path d="m 0,0 c 0,-8.066 -6.356,-14.606 -14.203,-14.606 -7.852,0 -14.209,6.54 -14.209,14.606 0,8.06 6.357,14.602 14.209,14.602 C -6.356,14.602 0,8.06 0,0" style="fill:#240e10;fill-opacity:1;fill-rule:nonzero;stroke:none" id="path344" />
        </g>
        <g id="g346" transform="translate(146.9351,312.356)">
          <path d="m 0,0 c 0,-8.066 -6.356,-14.606 -14.203,-14.606 -7.852,0 -14.209,6.54 -14.209,14.606 0,8.06 6.357,14.601 14.209,14.601 C -6.356,14.601 0,8.06 0,0" style="fill:#ffffff;fill-opacity:1;fill-rule:nonzero;stroke:none" id="path348" />
        </g>
        <g id="g350" transform="translate(130.189,322.1465)">
          <path d="m 0,0 c -3.794,0 -7.067,-2.274 -8.643,-5.564 1.143,-0.425 1.964,-1.554 1.964,-2.883 0,-1.647 -1.263,-2.991 -2.843,-3.059 0.719,-4.775 4.701,-8.435 9.522,-8.435 5.323,0 9.642,4.461 9.642,9.971 C 9.642,-4.461 5.323,0 0,0" style="fill:#240e10;fill-opacity:1;fill-rule:nonzero;stroke:none" id="path352" />
        </g>
        <g id="g354" transform="translate(120.165,321.2769)">
          <path d="M 0,0 -4.134,3.582 -2.913,4.992 1.221,1.41 Z" style="fill:#240e10;fill-opacity:1;fill-rule:nonzero;stroke:none" id="path356" />
        </g>
        <g id="g358" transform="translate(104.5161,290.5635)">
          <path d="M 0,0 C 0,0 5.374,-5.788 14.055,-0.414 14.055,-0.414 6.614,-14.882 0,0" style="fill:#240e10;fill-opacity:1;fill-rule:nonzero;stroke:none" id="path360" />
        </g>
        <g id="g362" transform="translate(164.3516,379.521)">
          <path d="m 0,0 c -2.89,11.127 -11.115,20.842 -23.089,21.71 -1.431,0.103 -3.146,0.123 -4.866,-0.06 -5.318,4.732 -15.686,5.602 -22.361,4.603 -7.15,-1.07 -12.545,-5.532 -16.885,-11.162 -2.306,-2.991 -3.124,-6.888 -2.571,-10.524 -7.011,-4.108 -8.001,-16.736 -5.363,-23.655 1.926,-5.053 6.671,-8.769 12.235,-8.138 2.341,0.267 4.375,1.137 6.1,2.417 3.197,-4.268 8.423,-7.184 13.746,-7.952 6.835,-0.987 12.577,1.497 15.816,6.17 5.874,-4.593 14.469,-6.417 20.567,-3.11 C 2.799,-24.564 2.285,-8.799 0,0" style="fill:#240e10;fill-opacity:1;fill-rule:nonzero;stroke:none" id="path364" />
        </g>
        <path d="M 95.154 392.725 C 89.544 399.714 79.278 400.977 72.115 395.885 C 67.785 392.807 64.954 388.058 65.03 383.689 C 59.643 378.043 59.013 366.399 64.979 361.55 C 72.018 355.829 81.776 360.14 86.609 367.005 C 91.79 365.472 97.11 366.916 99.622 372.923 C 102.415 379.601 99.389 387.448 95.154 392.725" style="fill:#240e10;fill-opacity:1;fill-rule:nonzero;stroke:none" id="path368" />
        <g id="g370" transform="translate(181.5679,210.3667)">
          <path d="m 0,0 c -1.394,1.649 -3.263,2.975 -5.323,3.749 -4.132,1.552 -8.121,0.348 -11.514,-2.177 -2.697,-2.007 -6.133,-6.82 -0.427,-7.954 -3.388,-4.235 3.502,-10.344 6.481,-5.729 -1.396,-2.164 1.388,-4.174 3.215,-4.254 2.922,-0.129 3.034,1.929 4.003,4.056 0.268,-0.973 1.156,-2.054 2.206,-2.218 2.81,-0.441 3.293,3.33 3.588,5.254 C 2.738,-5.949 2.245,-2.657 0,0" style="fill:#904434;fill-opacity:1;fill-rule:nonzero;stroke:none" id="path372" />
        </g>
        <g id="g376" />
        <g id="g388">
          <g clip-path="url(#clipPath380)" opacity="0.100006" id="g386">
            <g transform="translate(175.0259,97.8164)" id="g384">
              <path d="m 0,0 c 0,-10.442 -29.133,-18.908 -65.071,-18.908 -35.937,0 -65.07,8.466 -65.07,18.908 0,10.442 29.133,18.908 65.07,18.908 C -29.133,18.908 0,10.442 0,0" style="fill:#240e10;fill-opacity:1;fill-rule:nonzero;stroke:none" id="path382" />
            </g>
          </g>
        </g>
        <g id="g390" transform="translate(218.9634,280.1187)">
          <path d="m 0,0 c 3.017,-14.214 14.255,-24.782 26.143,-32.169 11.679,-7.258 25.574,-12.031 39.318,-12.926 10.364,-0.675 10.299,15.418 0,16.089 -10.123,0.659 -21.011,4.804 -30.148,10.098 C 26.375,-13.728 17.741,-6.215 15.514,4.277 13.36,14.424 -2.147,10.12 0,0" style="fill:#904434;fill-opacity:1;fill-rule:nonzero;stroke:none" id="path392" />
        </g>
        <g id="g394" transform="translate(236.2417,290.3179)">
          <path d="m 0,0 -1.047,5.322 -0.418,2.089 c -0.081,0.417 -0.23,0.809 -0.434,1.171 0.399,2.203 1.126,4.33 1.837,6.457 1.067,3.19 -3.857,4.884 -4.921,1.706 -0.596,-1.788 -1.18,-3.589 -1.633,-5.418 -0.076,0.013 -0.155,0.016 -0.229,0.022 -0.52,2.367 -1.089,4.731 -1.742,7.07 -0.755,2.685 -4.198,2.518 -5.076,0.266 -0.986,-2.536 0.765,-7.101 1.328,-9.601 -2.555,1.255 -7.119,0.376 -8.528,-2.128 -1.746,-3.103 0.297,-7.659 0.924,-10.795 0.434,-2.171 2.592,-3.671 5.268,-3.928 l 0.586,-5.06 11.1,1.526 -0.895,5.533 C -1.251,-4.595 0.385,-2.284 0,0" style="fill:#904434;fill-opacity:1;fill-rule:nonzero;stroke:none" id="path396" />
        </g>
        <g id="g398" transform="translate(226.9365,293.6787)">
          <path d="m 0,0 c 3.294,0.676 8.591,1.232 10.954,-1.734 3.815,-4.791 -3.837,-9.184 -7.437,-10.481 -3.685,-1.328 -7.8,-1.134 -11.063,1.131 -2.102,1.46 -2.441,4.535 -0.972,6.54 C -6.484,-1.766 -3.232,-0.665 0,0" style="fill:#904434;fill-opacity:1;fill-rule:nonzero;stroke:none" id="path400" />
        </g>
        <g id="g402">
          <g id="g404" />
          <g id="g416">
            <g clip-path="url(#clipPath408)" id="g414">
              <g transform="translate(222.6284,294.6191)" id="g412">
                <path d="m 0,0 c 2.809,0.337 6.321,-0.579 7.434,-3.458 0.01,-0.026 0.014,-0.051 0.023,-0.076 0.398,0.107 0.807,0.169 1.223,0.144 0.578,-0.036 1.725,-0.702 1.893,-0.685 1.236,0.123 0.574,-1.614 0.164,-2.071 C 9.478,-7.546 7.003,-6.459 5.492,-6.979 4.214,-7.418 3.198,-8.74 2.067,-9.47 -3.717,-13.2 -9.382,-1.127 0,0" style="fill:#904434;fill-opacity:1;fill-rule:nonzero;stroke:none" id="path410" />
              </g>
            </g>
          </g>
        </g>
        <g id="g418" transform="translate(218.8428,302.5308)">
          <path d="m 0,0 c -1.558,-0.666 -2.281,-2.468 -1.615,-4.025 l 3.75,-8.775 c 0.666,-1.558 2.468,-2.281 4.026,-1.615 1.557,0.665 2.28,2.468 1.615,4.026 l -3.75,8.774 C 3.36,-0.057 1.558,0.666 0,0" style="fill:#904434;fill-opacity:1;fill-rule:nonzero;stroke:none" id="path420" />
        </g>
        <g id="g422" transform="translate(214.6025,298.4951)">
          <path d="m 0,0 c -1.342,-0.574 -1.965,-2.126 -1.392,-3.471 l 2.386,-5.582 c 0.574,-1.343 2.128,-1.967 3.471,-1.393 1.344,0.574 1.966,2.128 1.392,3.471 L 3.471,-1.393 C 2.897,-0.048 1.344,0.574 0,0" style="fill:#904434;fill-opacity:1;fill-rule:nonzero;stroke:none" id="path424" />
        </g>
        <g id="g426">
          <g id="g428" />
          <g id="g440">
            <g clip-path="url(#clipPath432)" id="g438">
              <g transform="translate(237.9204,288.4146)" id="g436">
                <path d="m 0,0 c 0.473,1.626 -0.213,3.256 -1.533,3.64 l -7.436,2.164 c -1.32,0.385 -2.773,-0.623 -3.246,-2.249 -0.473,-1.626 0.213,-3.256 1.532,-3.641 L -3.247,-2.25 C -1.927,-2.634 -0.474,-1.626 0,0" style="fill:#904434;fill-opacity:1;fill-rule:nonzero;stroke:none" id="path434" />
              </g>
            </g>
          </g>
        </g>
        <g id="g442" transform="translate(239.1851,289.1401)">
          <path d="m 0,0 c 0.473,1.626 -0.212,3.257 -1.533,3.641 l -7.435,2.163 c -1.32,0.385 -2.774,-0.623 -3.247,-2.248 -0.473,-1.627 0.213,-3.258 1.533,-3.641 l 7.435,-2.164 C -1.927,-2.634 -0.474,-1.626 0,0" style="fill:#904434;fill-opacity:1;fill-rule:nonzero;stroke:none" id="path444" />
        </g>
        <g id="g446" transform="translate(349.0942,280.1772)">
          <path d="m 0,0 c -2.85,-10.156 -12.125,-16.66 -21.017,-21.326 -9.535,-5.004 -20.702,-8.138 -31.347,-8.138 -10.375,-0.001 -10.375,-16.089 0,-16.089 13.705,10e-4 27.325,4.196 39.468,10.335 12.686,6.415 24.461,16.873 28.41,30.941 C 18.323,5.731 2.799,9.974 0,0" style="fill:#904434;fill-opacity:1;fill-rule:nonzero;stroke:none" id="path448" />
        </g>
        <g id="g450" transform="translate(347.8735,286.6987)">
          <path d="M 0,0 1.388,5.243 1.94,7.3 c 0.108,0.411 0.282,0.793 0.51,1.14 -0.255,2.225 -0.843,4.395 -1.414,6.563 -0.86,3.253 4.165,4.624 5.02,1.384 0.479,-1.823 0.944,-3.658 1.278,-5.512 0.077,0.008 0.156,0.006 0.23,0.006 0.673,2.329 1.394,4.651 2.197,6.943 0.927,2.63 4.352,2.241 5.082,-0.063 0.821,-2.595 -1.223,-7.036 -1.947,-9.494 2.63,1.087 7.129,-0.087 8.373,-2.677 1.542,-3.21 -0.793,-7.623 -1.621,-10.713 -0.574,-2.138 -2.825,-3.495 -5.512,-3.579 l -0.913,-5.011 -10.977,2.243 1.252,5.464 C 0.951,-4.666 -0.533,-2.254 0,0" style="fill:#904434;fill-opacity:1;fill-rule:nonzero;stroke:none" id="path452" />
        </g>
        <g id="g454" transform="translate(357.375,289.4502)">
          <path d="m 0,0 c -3.243,0.888 -8.492,1.786 -11.042,-1.021 -4.118,-4.534 3.234,-9.414 6.741,-10.941 3.592,-1.564 7.711,-1.637 11.114,0.412 2.192,1.321 2.729,4.367 1.394,6.464 C 6.356,-2.183 3.184,-0.873 0,0" style="fill:#904434;fill-opacity:1;fill-rule:nonzero;stroke:none" id="path456" />
        </g>
        <g id="g458">
          <g id="g460" />
          <g id="g472">
            <g clip-path="url(#clipPath464)" id="g470">
              <g transform="translate(361.7358,290.1094)" id="g468">
                <path d="m 0,0 c -2.782,0.519 -6.346,-0.169 -7.643,-2.97 -0.012,-0.024 -0.017,-0.049 -0.028,-0.074 -0.391,0.133 -0.795,0.221 -1.209,0.223 -0.58,0.002 -1.767,-0.589 -1.935,-0.561 -1.226,0.203 -0.678,-1.573 -0.298,-2.055 1.166,-1.48 3.705,-0.555 5.18,-1.171 1.246,-0.522 2.175,-1.908 3.256,-2.709 C 2.854,-13.413 9.289,-1.732 0,0" style="fill:#904434;fill-opacity:1;fill-rule:nonzero;stroke:none" id="path466" />
              </g>
            </g>
          </g>
        </g>
        <g id="g474" transform="translate(366.0269,297.7588)">
          <path d="m 0,0 c 1.51,-0.765 2.116,-2.61 1.35,-4.122 l -4.311,-8.512 c -0.765,-1.512 -2.61,-2.116 -4.121,-1.351 -1.512,0.765 -2.117,2.61 -1.352,4.121 l 4.311,8.513 C -3.357,0.161 -1.513,0.766 0,0" style="fill:#904434;fill-opacity:1;fill-rule:nonzero;stroke:none" id="path476" />
        </g>
        <g id="g478" transform="translate(369.9951,293.457)">
          <path d="M 0,0 C 1.303,-0.659 1.824,-2.25 1.165,-3.553 L -1.578,-8.97 c -0.66,-1.303 -2.251,-1.824 -3.552,-1.165 -1.305,0.66 -1.826,2.251 -1.165,3.554 l 2.742,5.416 C -2.894,0.14 -1.302,0.66 0,0" style="fill:#904434;fill-opacity:1;fill-rule:nonzero;stroke:none" id="path480" />
        </g>
        <g id="g482">
          <g id="g484" />
          <g id="g496">
            <g clip-path="url(#clipPath488)" id="g494">
              <g transform="translate(346.0737,284.9082)" id="g492">
                <path d="M 0,0 C -0.367,1.654 0.423,3.236 1.767,3.533 L 9.326,5.211 C 10.668,5.51 12.053,4.409 12.419,2.757 12.787,1.102 11.997,-0.48 10.655,-0.778 L 3.095,-2.456 C 1.752,-2.753 0.366,-1.653 0,0" style="fill:#904434;fill-opacity:1;fill-rule:nonzero;stroke:none" id="path490" />
              </g>
            </g>
          </g>
        </g>
        <g id="g498" transform="translate(344.8589,285.7144)">
          <path d="M 0,0 C -0.367,1.653 0.423,3.236 1.765,3.534 L 9.326,5.211 C 10.668,5.51 12.053,4.41 12.418,2.756 12.787,1.103 11.996,-0.479 10.653,-0.777 L 3.095,-2.455 C 1.752,-2.753 0.367,-1.654 0,0" style="fill:#904434;fill-opacity:1;fill-rule:nonzero;stroke:none" id="path500" />
        </g>
        <g id="g502" transform="translate(262.0996,349.0107)">
          <path d="m 0,0 c -0.553,6.646 -4.093,15.836 -12.141,15.493 -1.611,-0.068 -3.05,-0.621 -4.234,-1.474 -3.503,4.071 -9.319,6.325 -14.519,4.351 -5.111,-1.94 -7.165,-6.255 -6.769,-10.499 -3.314,-1.876 -5.434,-5.101 -4.918,-9.441 0.189,-1.587 0.831,-2.764 1.73,-3.557 -3.728,-5.016 -1.523,-11.798 4.974,-15.807 3.475,-2.144 7.588,-2.957 11.478,-1.595 2.432,0.853 3.903,2.785 4.754,5.062 2.731,-2.436 6.637,-3.44 10.478,-1.837 C -2.417,-16.487 0.565,-6.783 0,0" style="fill:#240e10;fill-opacity:1;fill-rule:nonzero;stroke:none" id="path504" />
        </g>
        <g id="g506" transform="translate(243.2925,346.3828)">
          <path d="m 0,0 c -0.678,-10.372 7.18,-19.329 17.552,-20.007 10.371,-0.678 19.329,7.18 20.007,17.552 C 38.237,7.917 30.378,16.875 20.007,17.552 9.635,18.23 0.678,10.372 0,0" style="fill:#f28916;fill-opacity:1;fill-rule:nonzero;stroke:none" id="path508" />
        </g>
        <g id="g510" transform="translate(331.4922,344.4756)">
          <path d="m 0,0 c 1.414,6.518 6.12,15.168 14.055,13.781 1.589,-0.278 2.942,-1.013 4.006,-2.013 4.003,3.58 10.064,5.058 14.961,2.424 4.815,-2.588 6.291,-7.134 5.345,-11.29 3.041,-2.293 4.724,-5.766 3.647,-10.002 -0.392,-1.548 -1.183,-2.631 -2.178,-3.301 3.043,-5.458 -0.025,-11.897 -6.987,-15.025 -3.726,-1.674 -7.91,-1.944 -11.589,-0.087 -2.301,1.161 -3.509,3.269 -4.055,5.637 -3.025,-2.06 -7.028,-2.546 -10.628,-0.457 C 0.251,-16.662 -1.443,-6.652 0,0" style="fill:#240e10;fill-opacity:1;fill-rule:nonzero;stroke:none" id="path512" />
        </g>
        <g id="g514" transform="translate(349.7969,339.4219)">
          <path d="m 0,0 c -0.677,-10.372 -9.635,-18.23 -20.006,-17.552 -10.372,0.677 -18.23,9.635 -17.552,20.007 0.678,10.371 9.635,18.229 20.007,17.552 C -7.18,19.329 0.679,10.371 0,0" style="fill:#f28916;fill-opacity:1;fill-rule:nonzero;stroke:none" id="path516" />
        </g>
        <g id="g518" transform="translate(236.7261,313.2466)">
          <path d="m 0,0 c -0.185,-3.749 2.592,-6.931 6.191,-7.108 3.605,-0.178 6.676,2.718 6.861,6.467 C 13.236,3.108 10.463,6.291 6.858,6.468 3.258,6.645 0.185,3.75 0,0" style="fill:#904434;fill-opacity:1;fill-rule:nonzero;stroke:none" id="path520" />
        </g>
        <g id="g522" transform="translate(335.3218,305.3872)">
          <path d="m 0,0 c -0.428,-3.729 2.134,-7.085 5.718,-7.497 3.586,-0.412 6.836,2.278 7.264,6.006 0.43,3.73 -2.129,7.086 -5.713,7.497 C 3.685,6.418 0.428,3.729 0,0" style="fill:#904434;fill-opacity:1;fill-rule:nonzero;stroke:none" id="path524" />
        </g>
        <g id="g526" transform="translate(254.9585,110.4902)">
          <path d="m 0,0 c 0.039,-4.737 -7.738,-8.644 -17.372,-8.724 -9.635,-0.082 -17.476,3.693 -17.517,8.432 -0.039,4.738 7.738,8.643 17.372,8.724 C -7.881,8.512 -0.04,4.739 0,0" style="fill:#627595;fill-opacity:1;fill-rule:nonzero;stroke:none" id="path528" />
        </g>
        <g id="g530" transform="translate(227.5937,114.2871)">
          <path d="M 0,0 C 1.076,-1.171 1.985,-2.485 3.061,-3.658 3.833,-4.5 5.207,-3.376 4.434,-2.533 3.358,-1.359 2.449,-0.047 1.373,1.126 0.6,1.967 -0.774,0.843 0,0" style="fill:#ffffff;fill-opacity:1;fill-rule:nonzero;stroke:none" id="path532" />
        </g>
        <g id="g534" transform="translate(233.7183,115.8027)">
          <path d="M 0,0 C 1.076,-1.172 1.984,-2.486 3.061,-3.659 3.833,-4.5 5.208,-3.377 4.433,-2.533 3.356,-1.362 2.449,-0.047 1.372,1.126 0.6,1.967 -0.774,0.844 0,0" style="fill:#ffffff;fill-opacity:1;fill-rule:nonzero;stroke:none" id="path536" />
        </g>
        <g id="g538" transform="translate(280.5801,190.147)">
          <path d="m 0,0 c -5.785,2.458 -13.31,-2.134 -17.184,-10.316 l -0.037,0.016 -0.143,-0.392 c -0.087,-0.192 -0.184,-0.379 -0.267,-0.575 -0.462,-1.088 -0.836,-2.182 -1.128,-3.269 l -20.054,-59.033 c 0,0 2.682,-8.563 11.902,-5.478 L 5.994,-12.989 C 6.441,-6.994 4.279,-1.819 0,0" style="fill:#904434;fill-opacity:1;fill-rule:nonzero;stroke:none" id="path540" />
        </g>
        <g id="g542" transform="translate(292.9824,106.2412)">
          <path d="m 0,0 c -1.683,-4.429 4.251,-10.795 13.256,-14.219 9.006,-3.426 17.671,-2.611 19.356,1.818 C 34.296,-7.973 28.361,-1.608 19.355,1.817 10.349,5.241 1.684,4.429 0,0" style="fill:#627595;fill-opacity:1;fill-rule:nonzero;stroke:none" id="path544" />
        </g>
        <g id="g546" transform="translate(319.9604,100.2891)">
          <path d="m 0,0 c -1.417,-0.724 -2.725,-1.641 -4.142,-2.366 -1.015,-0.522 -1.914,1.01 -0.895,1.533 1.416,0.726 2.725,1.641 4.141,2.366 C 0.122,2.053 1.02,0.522 0,0" style="fill:#ffffff;fill-opacity:1;fill-rule:nonzero;stroke:none" id="path548" />
        </g>
        <g id="g550" transform="translate(314.7451,103.8394)">
          <path d="m 0,0 c -1.416,-0.726 -2.725,-1.642 -4.142,-2.367 -1.017,-0.52 -1.915,1.011 -0.896,1.532 1.418,0.725 2.725,1.642 4.143,2.368 C 0.121,2.053 1.019,0.522 0,0" style="fill:#ffffff;fill-opacity:1;fill-rule:nonzero;stroke:none" id="path552" />
        </g>
        <g id="g554" transform="translate(296.6455,189.8359)">
          <path d="m 0,0 c 6.279,0.295 11.739,-6.627 12.528,-15.646 l 0.039,0.002 -0.002,-0.416 c 0.015,-0.211 0.041,-0.42 0.051,-0.632 0.054,-1.182 0.025,-2.337 -0.078,-3.458 l -1.716,-62.322 c 0,0 -5.492,-7.098 -13.064,-1 l -7.892,73.377 C -8.47,-4.319 -4.644,-0.218 0,0" style="fill:#904434;fill-opacity:1;fill-rule:nonzero;stroke:none" id="path556" />
        </g>
        <g id="g558" transform="translate(314.3984,176.958)">
          <path d="M 0,0 3.906,53.069 C 5.142,71.977 -6.866,88.158 -22.915,89.207 -38.966,90.256 -52.981,75.776 -54.217,56.867 L -57.688,3.77 Z" style="fill:#f28916;fill-opacity:1;fill-rule:nonzero;stroke:none" id="path560" />
        </g>
      </g>
    </g>
    <g id="g562" transform="matrix(1, 0, 0, 1, 6.969306, 36.246799)">
      <g id="g564" clip-path="url(#clipPath568)">
        <g id="g570" transform="translate(291.7446,260.5986)">
          <path d="m 0,0 c -0.252,-3.862 -4.554,-6.726 -9.614,-6.395 -5.058,0.331 -8.955,3.73 -8.703,7.592 0.252,3.865 4.559,6.727 9.617,6.397 C -3.64,7.263 0.253,3.864 0,0" style="fill:#fdf7c3;fill-opacity:1;fill-rule:nonzero;stroke:none" id="path572" />
        </g>
        <g id="g574" transform="translate(308.8203,259.4824)">
          <path d="m 0,0 c -0.252,-3.862 -4.553,-6.726 -9.614,-6.395 -5.058,0.331 -8.955,3.73 -8.703,7.592 0.252,3.865 4.559,6.727 9.617,6.397 C -3.64,7.263 0.253,3.864 0,0" style="fill:#fdf7c3;fill-opacity:1;fill-rule:nonzero;stroke:none" id="path576" />
        </g>
        <g id="g578" transform="translate(300.499,266.5103)">
          <path d="m 0,0 c -0.253,-3.862 -4.554,-6.725 -9.615,-6.395 -5.058,0.331 -8.955,3.73 -8.703,7.592 0.253,3.865 4.559,6.728 9.617,6.397 C -3.64,7.263 0.252,3.865 0,0" style="fill:#904434;fill-opacity:1;fill-rule:nonzero;stroke:none" id="path580" />
        </g>
      </g>
    </g>
    <g id="g582" transform="matrix(1, 0, 0, 1, 6.969306, 36.246799)">
      <g id="g584" clip-path="url(#clipPath588)">
        <g id="g590" transform="translate(284.248,147.1465)">
          <path d="M 0,0 C 31.217,-1.764 43.438,5.434 43.438,5.434 L 25.773,56.303 4.041,61.833 4.062,62.141 3.226,62.042 2.409,62.249 2.389,61.941 -19.877,59.286 -44.014,11.15 c 0,0 11.181,-8.727 42.362,-11.042 L -1.653,0.096 c 0.281,-0.019 0.549,-0.032 0.827,-0.048 0.278,-0.02 0.545,-0.042 0.825,-0.06 z" style="fill:#f28916;fill-opacity:1;fill-rule:nonzero;stroke:none" id="path592" />
        </g>
        <g id="g594">
          <g id="g596" />
          <g id="g608">
            <g clip-path="url(#clipPath600)" id="g606">
              <g transform="translate(257.8774,198.5757)" id="g604">
                <path d="m 0,0 -0.412,-6.292 57.688,-3.771 0.516,6.286 z" style="fill:#ad3260;fill-opacity:1;fill-rule:nonzero;stroke:none" id="path602" />
              </g>
            </g>
          </g>
        </g>
        <g id="g610" transform="translate(294.1221,242.2397)">
          <path d="m 0,0 c -0.12,-1.842 -1.711,-3.238 -3.554,-3.118 -1.842,0.12 -3.238,1.712 -3.118,3.554 0.121,1.842 1.712,3.238 3.554,3.118 C -1.275,3.434 0.121,1.842 0,0" style="fill:#fdf7c3;fill-opacity:1;fill-rule:nonzero;stroke:none" id="path612" />
        </g>
        <g id="g614" transform="translate(293.0371,225.6445)">
          <path d="m 0,0 c -0.12,-1.842 -1.711,-3.238 -3.554,-3.118 -1.842,0.12 -3.238,1.712 -3.117,3.554 0.12,1.842 1.711,3.238 3.554,3.118 C -1.275,3.434 0.121,1.842 0,0" style="fill:#fdf7c3;fill-opacity:1;fill-rule:nonzero;stroke:none" id="path616" />
        </g>
        <g id="g618" transform="translate(291.9526,209.0493)">
          <path d="m 0,0 c -0.12,-1.842 -1.711,-3.239 -3.554,-3.118 -1.842,0.12 -3.238,1.712 -3.117,3.554 0.12,1.842 1.711,3.238 3.553,3.118 C -1.275,3.434 0.121,1.842 0,0" style="fill:#fdf7c3;fill-opacity:1;fill-rule:nonzero;stroke:none" id="path620" />
        </g>
        <g id="g622" transform="translate(297.0103,262.7915)">
          <path d="M 0,0 -11.442,0.749 -9.588,29.114 1.854,28.366 Z" style="fill:#904434;fill-opacity:1;fill-rule:nonzero;stroke:none" id="path624" />
        </g>
        <g id="g626" transform="translate(341.5679,353.5757)">
          <path d="m 0,0 c -0.642,17.932 -29.747,27.634 -45.042,28.519 -16.885,0.969 -40.679,-4.475 -43.747,-22.739 -1.839,-10.955 -3.233,-22.042 -3.773,-33.134 -0.488,-10.021 -2.067,-21.407 0.816,-31.265 9.24,-31.455 71.394,-34.195 85.844,-6.502 4.641,8.889 4.277,20.431 5.184,30.084 C 0.371,-23.425 0.421,-11.663 0,0" style="fill:#904434;fill-opacity:1;fill-rule:nonzero;stroke:none" id="path628" />
        </g>
        <g id="g630">
          <g id="g632" />
          <g id="g644">
            <g clip-path="url(#clipPath636)" id="g642">
              <g transform="translate(292.8691,303.229)" id="g640">
                <path d="m 0,0 c -1.875,0.326 -3.99,0.174 -5.182,-1.501 -0.974,-1.372 -0.756,-3.249 -0.217,-4.734 0.511,-1.411 1.612,-2.793 3.085,-3.249 1.892,-0.586 3.48,0.84 4.445,2.307 0.496,0.755 -0.664,1.537 -1.16,0.783 -0.645,-0.981 -1.639,-2.136 -2.947,-1.731 -1.096,0.339 -1.782,1.517 -2.172,2.516 -0.384,0.984 -0.492,2.265 0.053,3.211 0.79,1.371 2.674,1.233 4.003,1.002 C 0.797,-1.55 0.879,-0.153 0,0" style="fill:#904434;fill-opacity:1;fill-rule:nonzero;stroke:none" id="path638" />
              </g>
            </g>
          </g>
        </g>
        <g id="g646" transform="translate(263.749,333.0229)">
          <path d="m 0,0 c 2.273,1.431 5.601,3.372 8.271,1.851 3.331,-1.894 6.687,3.045 3.342,4.948 C 6.866,9.498 1.726,8.11 -2.667,5.34 -5.891,3.308 -3.259,-2.059 0,0" style="fill:#240e10;fill-opacity:1;fill-rule:nonzero;stroke:none" id="path648" />
        </g>
        <g id="g650" transform="translate(325.8711,328.9624)">
          <path d="M 0,0 C -2.065,1.715 -5.109,4.072 -7.957,2.913 -11.503,1.468 -14.191,6.801 -10.625,8.252 -5.566,10.311 -0.65,8.265 3.344,4.948 6.272,2.513 2.966,-2.465 0,0" style="fill:#240e10;fill-opacity:1;fill-rule:nonzero;stroke:none" id="path652" />
        </g>
        <g id="g654" transform="translate(255.8247,320.1265)">
          <path d="m 0,0 c -0.46,14.706 2.269,29.105 4.958,43.496 1.099,5.878 -7.889,8.387 -8.993,2.479 C -6.872,30.799 -9.812,15.509 -9.327,0 -9.139,-6 0.188,-6.018 0,0" style="fill:#240e10;fill-opacity:1;fill-rule:nonzero;stroke:none" id="path656" />
        </g>
        <g id="g658" transform="translate(341.7676,313.2583)">
          <path d="m 0,0 c 2.514,15.365 1.75,30.789 0.91,46.262 -0.325,5.981 -9.653,6.012 -9.327,0 C -7.626,31.706 -6.627,16.944 -8.994,2.479 -9.956,-3.402 -0.969,-5.924 0,0" style="fill:#240e10;fill-opacity:1;fill-rule:nonzero;stroke:none" id="path660" />
        </g>
        <g id="g662" transform="translate(301.7891,289.7417)">
          <path d="M 0,0 C 0,0 -11.493,-19.16 -19.223,1.825 Z" style="fill:#ffffff;fill-opacity:1;fill-rule:nonzero;stroke:none" id="path664" />
        </g>
        <g id="g666" transform="translate(350.6113,375.0103)">
          <path d="m 0,0 c -2.157,11.291 -9.733,21.522 -21.624,23.169 -1.421,0.197 -3.131,0.329 -4.859,0.258 -4.998,5.069 -15.288,6.614 -22.013,6.052 -7.205,-0.602 -12.88,-4.703 -17.577,-10.037 -2.497,-2.836 -3.567,-6.671 -3.253,-10.335 -7.263,-3.641 -9.075,-16.178 -6.894,-23.254 1.592,-5.168 6.085,-9.186 11.678,-8.918 2.354,0.112 4.44,0.848 6.245,2.013 2.912,-4.468 7.936,-7.718 13.198,-8.832 6.756,-1.43 12.649,0.674 16.185,5.126 5.562,-4.966 14.02,-7.347 20.32,-4.444 C 1.19,-24.694 1.706,-8.93 0,0" style="fill:#240e10;fill-opacity:1;fill-rule:nonzero;stroke:none" id="path668" />
        </g>
        <g id="g670" transform="translate(282.4224,392.6987)">
          <path d="m 0,0 c -5.142,7.34 -15.304,9.27 -22.783,4.656 -4.521,-2.79 -7.656,-7.343 -7.866,-11.708 -5.744,-5.283 -7.131,-16.861 -1.495,-22.089 6.651,-6.167 16.669,-2.503 21.94,4.033 5.07,-1.868 10.473,-0.774 13.371,5.056 C 6.391,-13.57 3.882,-5.542 0,0" style="fill:#240e10;fill-opacity:1;fill-rule:nonzero;stroke:none" id="path672" />
        </g>
        <g id="g674" transform="translate(273.2124,318.3467)">
          <path d="M 0,0 C 4.763,-0.311 8.717,-3.535 10.69,-8.071 9.852,-1.483 5.544,3.649 0.018,4.011 -5.953,4.401 -11.244,-0.916 -12.483,-8.166 -10.135,-3.035 -5.324,0.348 0,0" style="fill:#240e10;fill-opacity:1;fill-rule:nonzero;stroke:none" id="path676" />
        </g>
        <g id="g678" transform="translate(263.6123,316.4893)">
          <path d="M 0,0 -3.892,3.844 -2.581,5.171 1.311,1.327 Z" style="fill:#240e10;fill-opacity:1;fill-rule:nonzero;stroke:none" id="path680" />
        </g>
        <g id="g682" transform="translate(315.4453,319.5986)">
          <path d="m 0,0 c -3.256,0.212 -6.303,-1.28 -8.608,-3.849 l -3.162,3.123 -1.311,-1.327 3.313,-3.273 c -1.323,-1.924 -2.29,-4.26 -2.733,-6.851 2.348,5.131 7.159,8.514 12.483,8.166 4.763,-0.311 8.717,-3.535 10.69,-8.072 C 9.834,-5.494 5.526,-0.361 0,0" style="fill:#240e10;fill-opacity:1;fill-rule:nonzero;stroke:none" id="path684" />
        </g>
        <g id="g686">
          <g id="g688" />
          <g id="g700">
            <g clip-path="url(#clipPath692)" opacity="0.100006" id="g698">
              <g transform="translate(338.5957,97.8164)" id="g696">
                <path d="m 0,0 c 0,-10.442 -29.133,-18.908 -65.071,-18.908 -35.937,0 -65.07,8.466 -65.07,18.908 0,10.442 29.133,18.908 65.07,18.908 C -29.133,18.908 0,10.442 0,0" style="fill:#240e10;fill-opacity:1;fill-rule:nonzero;stroke:none" id="path694" />
              </g>
            </g>
          </g>
        </g>
        <g id="g702" transform="translate(487.7168,198.6284)">
          <path d="m 0,0 c 14.718,8.213 43.036,27.784 26.109,46.846 -5.563,6.265 -15.203,8.791 -23.076,10.397 -7.373,1.505 -14.994,2.308 -22.517,2.501 -10.381,0.265 -10.355,-15.825 0,-16.089 8.611,-0.219 22.026,1.07 29.22,-4.33 C 22.59,29.678 -1.185,17.762 -8.121,13.892 -17.18,8.837 -9.069,-5.06 0,0" style="fill:#904434;fill-opacity:1;fill-rule:nonzero;stroke:none" id="path704" />
        </g>
        <g id="g706" transform="translate(440.4824,198.6284)">
          <path d="m 0,0 c -14.718,8.213 -43.036,27.784 -26.109,46.846 5.563,6.265 15.203,8.791 23.076,10.397 7.373,1.505 14.994,2.308 22.517,2.501 10.381,0.265 10.355,-15.825 0,-16.089 -8.611,-0.219 -22.026,1.07 -29.22,-4.33 C -22.59,29.678 1.184,17.762 8.121,13.892 17.18,8.837 9.068,-5.06 0,0" style="fill:#904434;fill-opacity:1;fill-rule:nonzero;stroke:none" id="path708" />
        </g>
        <g id="g710" transform="translate(458.9775,107.1748)">
          <path d="m 0,0 c 1.683,-4.429 -4.252,-10.795 -13.256,-14.219 -9.007,-3.426 -17.672,-2.611 -19.356,1.818 -1.684,4.428 4.251,10.793 13.258,14.218 C -10.349,5.241 -1.685,4.429 0,0" style="fill:#627595;fill-opacity:1;fill-rule:nonzero;stroke:none" id="path712" />
        </g>
        <g id="g714" transform="translate(431.999,101.2227)">
          <path d="m 0,0 c 1.416,-0.724 2.726,-1.641 4.142,-2.366 1.015,-0.522 1.913,1.01 0.895,1.533 C 3.621,-0.107 2.312,0.808 0.896,1.533 -0.122,2.053 -1.021,0.522 0,0" style="fill:#ffffff;fill-opacity:1;fill-rule:nonzero;stroke:none" id="path716" />
        </g>
        <g id="g718" transform="translate(437.2148,104.7729)">
          <path d="m 0,0 c 1.416,-0.726 2.725,-1.642 4.142,-2.367 1.016,-0.52 1.915,1.011 0.895,1.532 C 3.62,-0.11 2.313,0.807 0.895,1.533 -0.121,2.053 -1.019,0.522 0,0" style="fill:#ffffff;fill-opacity:1;fill-rule:nonzero;stroke:none" id="path720" />
        </g>
        <g id="g722" transform="translate(455.3135,190.7695)">
          <path d="m 0,0 c -6.278,0.295 -11.738,-6.627 -12.526,-15.646 l -0.04,0.002 0.001,-0.416 c -0.014,-0.211 -0.04,-0.42 -0.051,-0.632 -0.054,-1.182 -0.024,-2.337 0.078,-3.458 l 1.717,-62.322 c 0,0 5.492,-7.098 13.064,-1 l 7.891,73.377 C 8.471,-4.319 4.645,-0.218 0,0" style="fill:#904434;fill-opacity:1;fill-rule:nonzero;stroke:none" id="path724" />
        </g>
        <g id="g726" transform="translate(473.6836,107.1748)">
          <path d="m 0,0 c -1.683,-4.429 4.251,-10.795 13.257,-14.219 9.006,-3.426 17.671,-2.611 19.354,1.818 C 34.297,-7.973 28.362,-1.608 19.355,1.817 10.35,5.241 1.685,4.429 0,0" style="fill:#627595;fill-opacity:1;fill-rule:nonzero;stroke:none" id="path728" />
        </g>
        <g id="g730" transform="translate(500.6621,101.2227)">
          <path d="m 0,0 c -1.416,-0.724 -2.726,-1.641 -4.142,-2.366 -1.016,-0.522 -1.914,1.01 -0.895,1.533 1.417,0.726 2.724,1.641 4.141,2.366 C 0.121,2.053 1.02,0.522 0,0" style="fill:#ffffff;fill-opacity:1;fill-rule:nonzero;stroke:none" id="path732" />
        </g>
        <g id="g734" transform="translate(495.4463,104.7729)">
          <path d="m 0,0 c -1.416,-0.726 -2.725,-1.642 -4.141,-2.367 -1.017,-0.52 -1.916,1.011 -0.896,1.532 1.417,0.725 2.724,1.642 4.142,2.368 C 0.122,2.053 1.02,0.522 0,0" style="fill:#ffffff;fill-opacity:1;fill-rule:nonzero;stroke:none" id="path736" />
        </g>
        <g id="g738" transform="translate(477.3477,190.7695)">
          <path d="m 0,0 c 6.277,0.295 11.738,-6.627 12.527,-15.646 l 0.039,0.002 -0.002,-0.416 c 0.015,-0.211 0.041,-0.42 0.051,-0.632 0.055,-1.182 0.026,-2.337 -0.078,-3.458 l -1.716,-62.322 c 0,0 -5.491,-7.098 -13.063,-1 l -7.893,73.377 C -8.471,-4.319 -4.645,-0.218 0,0" style="fill:#904434;fill-opacity:1;fill-rule:nonzero;stroke:none" id="path740" />
        </g>
        <g id="g742" transform="translate(494.9805,179.5283)">
          <path d="m 0,0 0.437,53.211 c 0,18.949 -13.039,34.312 -29.121,34.312 -16.085,0 -29.127,-15.363 -29.127,-34.312 l 0,-53.211 z" style="fill:#f28916;fill-opacity:1;fill-rule:nonzero;stroke:none" id="path744" />
        </g>
      </g>
    </g>
    <g id="g746" transform="matrix(1, 0, 0, 1, 6.969306, 36.246799)">
      <g id="g748" clip-path="url(#clipPath752)">
        <g id="g754" transform="translate(466.9189,261.5137)">
          <path d="m 0,0 c 0,-3.87 -4.104,-7.008 -9.176,-7.008 -5.068,0 -9.18,3.138 -9.18,7.008 0,3.873 4.112,7.01 9.18,7.01 C -4.104,7.01 0,3.873 0,0" style="fill:#fdf7c3;fill-opacity:1;fill-rule:nonzero;stroke:none" id="path756" />
        </g>
        <g id="g758" transform="translate(484.0312,261.5137)">
          <path d="m 0,0 c 0,-3.87 -4.104,-7.008 -9.176,-7.008 -5.068,0 -9.18,3.138 -9.18,7.008 0,3.873 4.112,7.01 9.18,7.01 C -4.104,7.01 0,3.873 0,0" style="fill:#fdf7c3;fill-opacity:1;fill-rule:nonzero;stroke:none" id="path760" />
        </g>
        <g id="g762" transform="translate(475.2695,267.9844)">
          <path d="m 0,0 c 0,-3.871 -4.105,-7.008 -9.177,-7.008 -5.069,0 -9.179,3.137 -9.179,7.008 0,3.873 4.11,7.01 9.179,7.01 C -4.105,7.01 0,3.873 0,0" style="fill:#904434;fill-opacity:1;fill-rule:nonzero;stroke:none" id="path764" />
        </g>
      </g>
    </g>
    <g id="g766" style="" transform="matrix(1, 0, 0, 1, 6.969306, 36.246799)">
      <g id="g768" clip-path="url(#clipPath772)">
        <g id="g774" transform="translate(466.8379,147.8149)">
          <path d="M 0,0 C 31.266,0.276 42.992,8.255 42.992,8.255 L 22.047,57.863 0,61.965 v 0.308 L -0.827,62.12 -1.654,62.273 V 61.965 L -23.701,57.863 -44.646,8.255 c 0,0 11.725,-7.979 42.992,-8.255 v -0.013 c 0.28,0 0.548,0.005 0.827,0.007 0.278,-0.002 0.546,-0.007 0.827,-0.007 z" style="fill:#f28916;fill-opacity:1;fill-rule:nonzero;stroke:none" id="path776" />
        </g>
        <g id="g778">
          <g id="g780" />
          <g id="g792">
            <g clip-path="url(#clipPath784)" id="g790">
              <g transform="translate(437.1699,197.4146)" id="g788">
                <path d="M 0,0 V -6.306 H 57.811 L 57.916,0 Z" style="fill:#ad3260;fill-opacity:1;fill-rule:nonzero;stroke:none" id="path786" />
              </g>
            </g>
          </g>
        </g>
        <g id="g794" transform="translate(470.4902,243.3491)">
          <path d="m 0,0 c 0,-1.846 -1.498,-3.343 -3.343,-3.343 -1.847,0 -3.344,1.497 -3.344,3.343 0,1.846 1.497,3.343 3.344,3.343 C -1.498,3.343 0,1.846 0,0" style="fill:#fdf7c3;fill-opacity:1;fill-rule:nonzero;stroke:none" id="path796" />
        </g>
        <g id="g798" transform="translate(470.4902,226.7187)">
          <path d="m 0,0 c 0,-1.847 -1.498,-3.344 -3.343,-3.344 -1.847,0 -3.344,1.497 -3.344,3.344 0,1.846 1.497,3.343 3.344,3.343 C -1.498,3.343 0,1.846 0,0" style="fill:#fdf7c3;fill-opacity:1;fill-rule:nonzero;stroke:none" id="path800" />
        </g>
        <g id="g802" transform="translate(470.4902,210.0879)">
          <path d="m 0,0 c 0,-1.846 -1.498,-3.343 -3.343,-3.343 -1.847,0 -3.344,1.497 -3.344,3.343 0,1.846 1.497,3.343 3.344,3.343 C -1.498,3.343 0,1.846 0,0" style="fill:#fdf7c3;fill-opacity:1;fill-rule:nonzero;stroke:none" id="path804" />
        </g>
        <g id="g806" transform="translate(431.5723,342.2031)">
          <path d="m 0,0 c -0.986,6.596 -5.118,15.536 -13.126,14.668 -1.603,-0.173 -3.003,-0.818 -4.13,-1.748 -3.761,3.834 -9.712,5.705 -14.771,3.396 -4.973,-2.269 -6.742,-6.709 -6.07,-10.919 -3.184,-2.088 -5.09,-5.444 -4.292,-9.741 0.292,-1.572 1.01,-2.704 1.959,-3.437 -3.393,-5.248 -0.751,-11.872 5.993,-15.448 3.609,-1.914 7.765,-2.457 11.558,-0.843 2.372,1.009 3.715,3.033 4.415,5.36 2.884,-2.252 6.847,-2.998 10.575,-1.149 C -1.338,-16.61 1.006,-6.731 0,0" style="fill:#240e10;fill-opacity:1;fill-rule:nonzero;stroke:none" id="path808" />
        </g>
        <g id="g810" transform="translate(412.9756,338.354)">
          <path d="m 0,0 c 0,-10.394 8.427,-18.82 18.819,-18.82 10.395,0 18.821,8.426 18.821,18.82 0,10.394 -8.426,18.819 -18.821,18.819 C 8.427,18.819 0,10.394 0,0" style="fill:#f28916;fill-opacity:1;fill-rule:nonzero;stroke:none" id="path812" />
        </g>
        <g id="g814" transform="translate(501.1133,342.2031)">
          <path d="m 0,0 c 0.985,6.596 5.116,15.536 13.124,14.668 1.605,-0.173 3.004,-0.818 4.13,-1.748 3.762,3.834 9.713,5.705 14.771,3.396 4.974,-2.269 6.743,-6.709 6.07,-10.919 3.185,-2.088 5.091,-5.444 4.292,-9.741 -0.292,-1.572 -1.01,-2.704 -1.958,-3.437 3.393,-5.248 0.75,-11.872 -5.993,-15.448 -3.61,-1.914 -7.766,-2.457 -11.559,-0.843 -2.371,1.009 -3.713,3.033 -4.414,5.36 C 15.58,-20.964 11.616,-21.71 7.888,-19.861 1.337,-16.61 -1.007,-6.731 0,0" style="fill:#240e10;fill-opacity:1;fill-rule:nonzero;stroke:none" id="path816" />
        </g>
        <g id="g818" transform="translate(519.708,338.354)">
          <path d="m 0,0 c 0,-10.394 -8.425,-18.82 -18.819,-18.82 -10.394,0 -18.82,8.426 -18.82,18.82 0,10.394 8.426,18.819 18.82,18.819 C -8.425,18.819 0,10.394 0,0" style="fill:#f28916;fill-opacity:1;fill-rule:nonzero;stroke:none" id="path820" />
        </g>
        <g id="g822" transform="translate(409.7441,305.7954)">
          <path d="m 0,0 c 0,-3.753 2.93,-6.795 6.533,-6.795 3.61,0 6.535,3.042 6.535,6.795 0,3.754 -2.925,6.797 -6.535,6.797 C 2.93,6.797 0,3.754 0,0" style="fill:#904434;fill-opacity:1;fill-rule:nonzero;stroke:none" id="path824" />
        </g>
        <g id="g826" transform="translate(509.8711,305.7954)">
          <path d="m 0,0 c 0,-3.753 2.93,-6.795 6.536,-6.795 3.609,0 6.532,3.042 6.532,6.795 0,3.754 -2.923,6.797 -6.532,6.797 C 2.93,6.797 0,3.754 0,0" style="fill:#904434;fill-opacity:1;fill-rule:nonzero;stroke:none" id="path828" />
        </g>
        <path d="m 472.031,264.046 h -11.467 v 28.426 h 11.467 z" style="fill:#904434;fill-opacity:1;fill-rule:nonzero;stroke:none" id="path830" />
        <g id="g832" transform="translate(510.5723,351.9409)">
          <path d="m 0,0 c -1.81,17.852 -31.485,25.635 -46.805,25.521 -16.913,-0.134 -40.3,-7.118 -42.172,-25.544 -1.12,-11.052 -1.789,-22.206 -1.602,-33.309 0.165,-10.032 -0.667,-21.497 2.852,-31.146 11.272,-30.785 73.473,-29.465 86.086,-0.889 4.051,9.172 2.936,20.666 3.209,30.357 C 1.898,-23.351 1.182,-11.611 0,0" style="fill:#904434;fill-opacity:1;fill-rule:nonzero;stroke:none" id="path834" />
        </g>
        <g id="g836">
          <g id="g838" />
          <g id="g850">
            <g clip-path="url(#clipPath842)" id="g848">
              <g transform="translate(465.2617,298.5254)" id="g846">
                <path d="m 0,0 c -1.893,0.203 -3.993,-0.086 -5.073,-1.836 -0.883,-1.432 -0.543,-3.291 0.092,-4.738 0.602,-1.374 1.791,-2.682 3.291,-3.041 1.925,-0.461 3.417,1.066 4.284,2.593 0.446,0.785 -0.762,1.49 -1.207,0.706 -0.581,-1.022 -1.498,-2.239 -2.828,-1.92 -1.117,0.267 -1.878,1.397 -2.332,2.368 -0.448,0.958 -0.639,2.229 -0.157,3.207 0.7,1.421 2.587,1.406 3.93,1.262 C 0.896,-1.495 0.887,-0.095 0,0" style="fill:#904434;fill-opacity:1;fill-rule:nonzero;stroke:none" id="path844" />
              </g>
            </g>
          </g>
        </g>
        <g id="g852" transform="translate(434.2607,326.3569)">
          <path d="M 0,0 C 2.174,1.576 5.369,3.73 8.132,2.387 11.58,0.714 14.606,5.86 11.145,7.542 6.231,9.925 1.192,8.205 -3.011,5.154 -6.095,2.916 -3.118,-2.267 0,0" style="fill:#240e10;fill-opacity:1;fill-rule:nonzero;stroke:none" id="path854" />
        </g>
        <g id="g856" transform="translate(496.5146,326.3569)">
          <path d="M 0,0 C -2.173,1.576 -5.364,3.73 -8.13,2.387 -11.574,0.714 -14.604,5.86 -11.14,7.542 -6.226,9.925 -1.187,8.205 3.016,5.154 6.096,2.916 3.121,-2.267 0,0" style="fill:#240e10;fill-opacity:1;fill-rule:nonzero;stroke:none" id="path858" />
        </g>
        <g id="g860" transform="translate(427.2051,312.6665)">
          <path d="m 0,0 c -1.459,15.046 0.402,30.042 2.195,44.975 0.716,5.963 -8.619,5.894 -9.326,0 C -8.925,30.042 -10.785,15.046 -9.327,0 -8.752,-5.931 0.58,-5.987 0,0" style="fill:#240e10;fill-opacity:1;fill-rule:nonzero;stroke:none" id="path862" />
        </g>
        <g id="g864" transform="translate(513.4971,312.6665)">
          <path d="m 0,0 c 1.458,15.045 -0.4,30.042 -2.194,44.975 -0.707,5.894 -10.042,5.963 -9.327,0 C -9.728,30.042 -7.868,15.045 -9.327,0 -9.907,-5.987 -0.575,-5.931 0,0" style="fill:#240e10;fill-opacity:1;fill-rule:nonzero;stroke:none" id="path866" />
        </g>
        <g id="g868" transform="translate(500.7832,309.8516)">
          <path d="m 0,0 c 0,-8.066 -6.355,-14.606 -14.203,-14.606 -7.852,0 -14.209,6.54 -14.209,14.606 0,8.06 6.357,14.602 14.209,14.602 C -6.355,14.602 0,8.06 0,0" style="fill:#240e10;fill-opacity:1;fill-rule:nonzero;stroke:none" id="path870" />
        </g>
        <g id="g872" transform="translate(500.7832,306.7544)">
          <path d="m 0,0 c 0,-8.066 -6.355,-14.606 -14.203,-14.606 -7.852,0 -14.209,6.54 -14.209,14.606 0,8.06 6.357,14.601 14.209,14.601 C -6.355,14.601 0,8.06 0,0" style="fill:#ffffff;fill-opacity:1;fill-rule:nonzero;stroke:none" id="path874" />
        </g>
        <g id="g876" transform="translate(485.9629,311.4336)">
          <path d="m 0,0 c -3.795,0 -7.068,-2.274 -8.643,-5.564 1.141,-0.425 1.962,-1.554 1.962,-2.883 0,-1.647 -1.261,-2.991 -2.841,-3.059 0.718,-4.775 4.701,-8.435 9.522,-8.435 5.322,0 9.642,4.461 9.642,9.971 C 9.642,-4.461 5.322,0 0,0" style="fill:#240e10;fill-opacity:1;fill-rule:nonzero;stroke:none" id="path878" />
        </g>
        <g id="g880" transform="translate(474.0127,315.6753)">
          <path d="m 0,0 -4.133,3.582 1.22,1.41 4.135,-3.582 z" style="fill:#240e10;fill-opacity:1;fill-rule:nonzero;stroke:none" id="path882" />
        </g>
        <g id="g884" transform="translate(518.1992,373.9194)">
          <path d="m 0,0 c -2.889,11.127 -11.115,20.842 -23.089,21.71 -1.431,0.104 -3.145,0.123 -4.866,-0.06 -5.318,4.732 -15.686,5.602 -22.361,4.603 -7.15,-1.07 -12.545,-5.532 -16.885,-11.161 -2.306,-2.992 -3.124,-6.889 -2.571,-10.525 -7.01,-4.108 -8.001,-16.736 -5.364,-23.655 1.928,-5.053 6.673,-8.769 12.236,-8.137 2.34,0.266 4.376,1.136 6.1,2.416 3.197,-4.268 8.423,-7.184 13.746,-7.952 6.835,-0.987 12.577,1.497 15.816,6.17 5.875,-4.593 14.469,-6.416 20.567,-3.109 C 2.799,-24.564 2.285,-8.799 0,0" style="fill:#240e10;fill-opacity:1;fill-rule:nonzero;stroke:none" id="path886" />
        </g>
        <g id="g888" transform="translate(449.002,387.1235)">
          <path d="m 0,0 c -5.609,6.988 -15.875,8.252 -23.038,3.16 -4.33,-3.079 -7.161,-7.827 -7.086,-12.196 -5.387,-5.646 -6.017,-17.29 -0.051,-22.139 7.038,-5.721 16.797,-1.411 21.63,5.454 5.181,-1.533 10.501,-0.089 13.014,5.918 C 7.261,-13.125 4.235,-5.277 0,0" style="fill:#240e10;fill-opacity:1;fill-rule:nonzero;stroke:none" id="path890" />
        </g>
        <g id="g892" transform="translate(446.7451,299.1714)">
          <path d="m 0,0 c -3.229,-0.466 -6.383,0.784 -8.882,3.166 l -2.908,-3.36 -1.411,1.22 3.048,3.522 c -1.47,1.815 -2.616,4.069 -3.259,6.617 2.74,-4.931 7.802,-7.93 13.081,-7.168 4.725,0.682 8.416,4.205 10.028,8.88 C 9.376,6.244 5.482,0.791 0,0" style="fill:#240e10;fill-opacity:1;fill-rule:nonzero;stroke:none" id="path894" />
        </g>
        <g id="g896" transform="translate(463.043,280.6987)">
          <path d="M 0,0 C 2.685,0.437 5.687,0.835 8.249,-0.326 9.879,-1.064 11.302,1.347 9.661,2.09 6.322,3.603 2.78,3.271 -0.743,2.698 -2.521,2.408 -1.765,-0.288 0,0" style="fill:#240e10;fill-opacity:1;fill-rule:nonzero;stroke:none" id="path898" />
        </g>
        <g id="g900" transform="translate(436.2705,288.6045)">
          <path d="M 0,0 2.775,3.544" style="fill:none;stroke:#f26b80;stroke-width:1;stroke-linecap:round;stroke-linejoin:round;stroke-miterlimit:10;stroke-dasharray:none;stroke-opacity:1" id="path902" />
        </g>
        <g id="g904" transform="translate(431.3066,288.6045)">
          <path d="M 0,0 2.775,3.544" style="fill:none;stroke:#f26b80;stroke-width:1;stroke-linecap:round;stroke-linejoin:round;stroke-miterlimit:10;stroke-dasharray:none;stroke-opacity:1" id="path906" />
        </g>
        <g id="g908" transform="translate(441.2344,288.6045)">
          <path d="M 0,0 2.775,3.544" style="fill:none;stroke:#f26b80;stroke-width:1;stroke-linecap:round;stroke-linejoin:round;stroke-miterlimit:10;stroke-dasharray:none;stroke-opacity:1" id="path910" />
        </g>
        <g id="g912" transform="translate(494.7197,288.6045)">
          <path d="M 0,0 2.775,3.544" style="fill:none;stroke:#f26b80;stroke-width:1;stroke-linecap:round;stroke-linejoin:round;stroke-miterlimit:10;stroke-dasharray:none;stroke-opacity:1" id="path914" />
        </g>
        <g id="g916" transform="translate(489.7559,288.6045)">
          <path d="M 0,0 2.775,3.544" style="fill:none;stroke:#f26b80;stroke-width:1;stroke-linecap:round;stroke-linejoin:round;stroke-miterlimit:10;stroke-dasharray:none;stroke-opacity:1" id="path918" />
        </g>
        <g id="g920" transform="translate(499.6836,288.6045)">
          <path d="M 0,0 2.775,3.544" style="fill:none;stroke:#f26b80;stroke-width:1;stroke-linecap:round;stroke-linejoin:round;stroke-miterlimit:10;stroke-dasharray:none;stroke-opacity:1" id="path922" />
        </g>
        <g id="g924">
          <g id="g926" />
          <g id="g938">
            <g clip-path="url(#clipPath930)" opacity="0.100006" id="g936">
              <g transform="translate(528.5156,97.8164)" id="g934">
                <path d="m 0,0 c 0,-10.442 -29.133,-18.908 -65.07,-18.908 -35.938,0 -65.071,8.466 -65.071,18.908 0,10.442 29.133,18.908 65.071,18.908 C -29.133,18.908 0,10.442 0,0" style="fill:#240e10;fill-opacity:1;fill-rule:nonzero;stroke:none" id="path932" />
              </g>
            </g>
          </g>
        </g>
        <g id="g940" transform="translate(698.5254,285.0835)">
          <path d="m 0,0 c -2.25,-10.601 -10.892,-17.839 -19.799,-23.185 -9,-5.399 -20.121,-9.445 -30.148,-10.099 -10.299,-0.67 -10.365,-16.763 0,-16.088 13.876,0.904 27.446,5.802 39.318,12.926 C 1.3,-29.289 12.53,-18.334 15.515,-4.277 17.662,5.842 2.154,10.146 0,0" style="fill:#904434;fill-opacity:1;fill-rule:nonzero;stroke:none" id="path942" />
        </g>
        <g id="g944" transform="translate(709.0957,300.0894)">
          <path d="M 0,0 C 2.556,1.256 7.119,0.376 8.528,-2.128 10.275,-5.231 8.231,-9.787 7.604,-12.923 7.171,-15.094 5.013,-16.594 2.337,-16.851 l -0.587,-5.06 -11.099,1.527 0.895,5.532 c -2.629,1.173 -4.266,3.484 -3.881,5.769 l 1.048,5.322 0.417,2.088 c 0.081,0.417 0.23,0.809 0.434,1.171 -0.398,2.203 -1.126,4.33 -1.836,6.457 -1.068,3.191 3.857,4.884 4.92,1.706 0.596,-1.788 1.18,-3.589 1.633,-5.418 0.076,0.014 0.156,0.016 0.229,0.023" style="fill:#904434;fill-opacity:1;fill-rule:nonzero;stroke:none" id="path946" />
        </g>
        <g id="g948" transform="translate(706.0664,294.3667)">
          <path d="m 0,0 c -3.295,0.676 -8.591,1.232 -10.954,-1.734 -3.816,-4.791 3.837,-9.184 7.437,-10.482 3.684,-1.327 7.799,-1.134 11.063,1.132 2.102,1.46 2.44,4.535 0.972,6.54 C 6.484,-1.766 3.232,-0.665 0,0" style="fill:#904434;fill-opacity:1;fill-rule:nonzero;stroke:none" id="path950" />
        </g>
        <g id="g952">
          <g id="g954" />
          <g id="g966">
            <g clip-path="url(#clipPath958)" id="g964">
              <g transform="translate(710.374,295.3071)" id="g962">
                <path d="m 0,0 c -2.809,0.337 -6.321,-0.58 -7.434,-3.458 -0.01,-0.026 -0.013,-0.051 -0.023,-0.077 -0.397,0.107 -0.807,0.17 -1.223,0.144 -0.578,-0.035 -1.725,-0.701 -1.892,-0.684 -1.238,0.123 -0.574,-1.614 -0.164,-2.071 1.258,-1.401 3.734,-0.313 5.244,-0.833 1.278,-0.439 2.294,-1.762 3.426,-2.492 C 3.717,-13.2 9.382,-1.127 0,0" style="fill:#904434;fill-opacity:1;fill-rule:nonzero;stroke:none" id="path960" />
              </g>
            </g>
          </g>
        </g>
        <g id="g968" transform="translate(714.1592,303.2187)">
          <path d="m 0,0 c 1.559,-0.667 2.282,-2.468 1.616,-4.026 l -3.751,-8.775 c -0.665,-1.557 -2.468,-2.28 -4.025,-1.614 -1.558,0.665 -2.28,2.467 -1.614,4.025 l 3.749,8.775 C -3.358,-0.058 -1.558,0.666 0,0" style="fill:#904434;fill-opacity:1;fill-rule:nonzero;stroke:none" id="path970" />
        </g>
        <g id="g972" transform="translate(708.5566,304.9116)">
          <path d="m 0,0 c 1.559,-0.667 2.282,-2.468 1.616,-4.026 l -3.751,-8.775 c -0.665,-1.557 -2.467,-2.28 -4.025,-1.614 -1.558,0.665 -2.28,2.467 -1.614,4.025 l 3.749,8.774 C -3.358,-0.058 -1.557,0.666 0,0" style="fill:#904434;fill-opacity:1;fill-rule:nonzero;stroke:none" id="path974" />
        </g>
        <g id="g976" transform="translate(718.4004,299.1831)">
          <path d="m 0,0 c 1.342,-0.575 1.965,-2.127 1.392,-3.471 l -2.387,-5.583 c -0.573,-1.342 -2.127,-1.966 -3.47,-1.392 -1.345,0.574 -1.966,2.127 -1.391,3.471 l 2.384,5.582 C -2.896,-0.048 -1.345,0.574 0,0" style="fill:#904434;fill-opacity:1;fill-rule:nonzero;stroke:none" id="path978" />
        </g>
        <g id="g980">
          <g id="g982" />
          <g id="g994">
            <g clip-path="url(#clipPath986)" id="g992">
              <g transform="translate(695.082,289.1021)" id="g990">
                <path d="m 0,0 c -0.473,1.627 0.213,3.257 1.533,3.641 l 7.436,2.164 c 1.32,0.384 2.772,-0.624 3.246,-2.25 0.473,-1.626 -0.213,-3.256 -1.531,-3.641 L 3.247,-2.25 C 1.927,-2.634 0.474,-1.626 0,0" style="fill:#904434;fill-opacity:1;fill-rule:nonzero;stroke:none" id="path988" />
              </g>
            </g>
          </g>
        </g>
        <g id="g996" transform="translate(693.8174,289.8281)">
          <path d="M 0,0 C -0.474,1.626 0.213,3.257 1.533,3.641 L 8.969,5.804 C 10.288,6.189 11.742,5.181 12.216,3.555 12.688,1.929 12.003,0.298 10.682,-0.086 L 3.248,-2.25 C 1.928,-2.634 0.474,-1.627 0,0" style="fill:#904434;fill-opacity:1;fill-rule:nonzero;stroke:none" id="path998" />
        </g>
        <g id="g1000" transform="translate(605.0996,198.6284)">
          <path d="m 0,0 c -14.718,8.213 -43.036,27.784 -26.109,46.846 5.563,6.265 15.203,8.791 23.076,10.397 7.373,1.505 14.994,2.308 22.516,2.501 10.382,0.265 10.356,-15.825 0,-16.089 -8.61,-0.219 -22.025,1.07 -29.219,-4.33 C -22.59,29.678 1.184,17.762 8.121,13.892 17.18,8.837 9.068,-5.06 0,0" style="fill:#904434;fill-opacity:1;fill-rule:nonzero;stroke:none" id="path1002" />
        </g>
        <g id="g1004" transform="translate(627.3105,107.1748)">
          <path d="m 0,0 c 1.683,-4.429 -4.252,-10.795 -13.256,-14.219 -9.006,-3.426 -17.672,-2.611 -19.356,1.818 -1.684,4.428 4.251,10.793 13.258,14.218 C -10.349,5.241 -1.685,4.429 0,0" style="fill:#627595;fill-opacity:1;fill-rule:nonzero;stroke:none" id="path1006" />
        </g>
        <g id="g1008" transform="translate(600.332,101.2227)">
          <path d="m 0,0 c 1.417,-0.724 2.726,-1.641 4.142,-2.366 1.015,-0.522 1.914,1.01 0.895,1.533 C 3.622,-0.107 2.312,0.808 0.896,1.533 -0.122,2.053 -1.02,0.522 0,0" style="fill:#ffffff;fill-opacity:1;fill-rule:nonzero;stroke:none" id="path1010" />
        </g>
        <g id="g1012" transform="translate(605.5479,104.7729)">
          <path d="m 0,0 c 1.416,-0.726 2.725,-1.642 4.142,-2.367 1.016,-0.52 1.915,1.011 0.895,1.532 C 3.62,-0.11 2.313,0.807 0.896,1.533 -0.12,2.053 -1.019,0.522 0,0" style="fill:#ffffff;fill-opacity:1;fill-rule:nonzero;stroke:none" id="path1014" />
        </g>
        <g id="g1016" transform="translate(623.6475,190.7695)">
          <path d="m 0,0 c -6.279,0.295 -11.739,-6.627 -12.527,-15.646 l -0.04,0.002 0.002,-0.416 c -0.015,-0.211 -0.04,-0.42 -0.052,-0.632 -0.054,-1.182 -0.024,-2.337 0.079,-3.458 l 1.716,-62.322 c 0,0 5.492,-7.098 13.064,-1 l 7.892,73.377 C 8.47,-4.319 4.644,-0.218 0,0" style="fill:#904434;fill-opacity:1;fill-rule:nonzero;stroke:none" id="path1018" />
        </g>
        <g id="g1020" transform="translate(642.0176,107.1748)">
          <path d="m 0,0 c -1.684,-4.429 4.25,-10.795 13.256,-14.219 9.006,-3.426 17.671,-2.611 19.355,1.818 1.685,4.428 -4.25,10.793 -13.256,14.218 C 10.349,5.241 1.684,4.429 0,0" style="fill:#627595;fill-opacity:1;fill-rule:nonzero;stroke:none" id="path1022" />
        </g>
        <g id="g1024" transform="translate(668.9951,101.2227)">
          <path d="m 0,0 c -1.416,-0.724 -2.725,-1.641 -4.142,-2.366 -1.016,-0.522 -1.914,1.01 -0.894,1.533 1.416,0.726 2.723,1.641 4.14,2.366 C 0.121,2.053 1.02,0.522 0,0" style="fill:#ffffff;fill-opacity:1;fill-rule:nonzero;stroke:none" id="path1026" />
        </g>
        <g id="g1028" transform="translate(663.7803,104.7729)">
          <path d="m 0,0 c -1.417,-0.726 -2.726,-1.642 -4.142,-2.367 -1.017,-0.52 -1.916,1.011 -0.896,1.532 1.417,0.725 2.725,1.642 4.142,2.368 C 0.121,2.053 1.019,0.522 0,0" style="fill:#ffffff;fill-opacity:1;fill-rule:nonzero;stroke:none" id="path1030" />
        </g>
        <g id="g1032" transform="translate(645.6807,190.7695)">
          <path d="m 0,0 c 6.278,0.295 11.738,-6.627 12.528,-15.646 l 0.039,0.002 -0.003,-0.416 c 0.015,-0.211 0.041,-0.42 0.051,-0.632 0.055,-1.182 0.026,-2.337 -0.078,-3.458 l -1.715,-62.322 c 0,0 -5.492,-7.098 -13.064,-1 l -7.893,73.377 C -8.471,-4.319 -4.645,-0.218 0,0" style="fill:#904434;fill-opacity:1;fill-rule:nonzero;stroke:none" id="path1034" />
        </g>
        <g id="g1036" transform="translate(663.3135,179.5283)">
          <path d="m 0,0 0.437,53.211 c 0,18.949 -13.038,34.312 -29.121,34.312 -16.085,0 -29.127,-15.363 -29.127,-34.312 l 0,-53.211 z" style="fill:#f28916;fill-opacity:1;fill-rule:nonzero;stroke:none" id="path1038" />
        </g>
      </g>
    </g>
    <g id="g1040" style="" transform="matrix(1, 0, 0, 1, 6.969306, 36.246799)">
      <g id="g1042" clip-path="url(#clipPath1046)">
        <g id="g1048" transform="translate(635.2529,261.5137)">
          <path d="m 0,0 c 0,-3.87 -4.105,-7.008 -9.177,-7.008 -5.068,0 -9.179,3.138 -9.179,7.008 0,3.873 4.111,7.01 9.179,7.01 C -4.105,7.01 0,3.873 0,0" style="fill:#fdf7c3;fill-opacity:1;fill-rule:nonzero;stroke:none" id="path1050" />
        </g>
        <g id="g1052" transform="translate(652.3652,261.5137)">
          <path d="m 0,0 c 0,-3.87 -4.105,-7.008 -9.177,-7.008 -5.068,0 -9.179,3.138 -9.179,7.008 0,3.873 4.111,7.01 9.179,7.01 C -4.105,7.01 0,3.873 0,0" style="fill:#fdf7c3;fill-opacity:1;fill-rule:nonzero;stroke:none" id="path1054" />
        </g>
        <g id="g1056" transform="translate(643.6025,267.9844)">
          <path d="m 0,0 c 0,-3.871 -4.105,-7.008 -9.177,-7.008 -5.068,0 -9.179,3.137 -9.179,7.008 0,3.873 4.111,7.01 9.179,7.01 C -4.105,7.01 0,3.873 0,0" style="fill:#904434;fill-opacity:1;fill-rule:nonzero;stroke:none" id="path1058" />
        </g>
      </g>
    </g>
    <g id="g1060" style="" transform="matrix(1, 0, 0, 1, 6.969306, 36.246799)">
      <g id="g1062" clip-path="url(#clipPath1066)">
        <g id="g1068" transform="translate(635.1719,147.8149)">
          <path d="M 0,0 C 31.265,0.276 42.991,8.255 42.991,8.255 L 22.046,57.863 0,61.965 v 0.308 L -0.828,62.12 -1.655,62.273 V 61.965 L -23.702,57.863 -44.647,8.255 c 0,0 11.725,-7.979 42.992,-8.255 v -0.013 c 0.28,0 0.548,0.005 0.827,0.007 C -0.55,-0.008 -0.282,-0.013 0,-0.013 Z" style="fill:#f28916;fill-opacity:1;fill-rule:nonzero;stroke:none" id="path1070" />
        </g>
        <g id="g1072">
          <g id="g1074" />
          <g id="g1086">
            <g clip-path="url(#clipPath1078)" id="g1084">
              <g transform="translate(605.5029,197.4146)" id="g1082">
                <path d="M 0,0 V -6.306 H 57.811 L 57.916,0 Z" style="fill:#ad3260;fill-opacity:1;fill-rule:nonzero;stroke:none" id="path1080" />
              </g>
            </g>
          </g>
        </g>
        <g id="g1088" transform="translate(638.8232,243.3491)">
          <path d="m 0,0 c 0,-1.846 -1.498,-3.343 -3.343,-3.343 -1.847,0 -3.344,1.497 -3.344,3.343 0,1.846 1.497,3.343 3.344,3.343 C -1.498,3.343 0,1.846 0,0" style="fill:#fdf7c3;fill-opacity:1;fill-rule:nonzero;stroke:none" id="path1090" />
        </g>
        <g id="g1092" transform="translate(638.8232,226.7187)">
          <path d="m 0,0 c 0,-1.847 -1.498,-3.344 -3.343,-3.344 -1.847,0 -3.344,1.497 -3.344,3.344 0,1.846 1.497,3.343 3.344,3.343 C -1.498,3.343 0,1.846 0,0" style="fill:#fdf7c3;fill-opacity:1;fill-rule:nonzero;stroke:none" id="path1094" />
        </g>
        <g id="g1096" transform="translate(638.8232,210.0879)">
          <path d="m 0,0 c 0,-1.846 -1.498,-3.343 -3.343,-3.343 -1.847,0 -3.344,1.497 -3.344,3.343 0,1.846 1.497,3.343 3.344,3.343 C -1.498,3.343 0,1.846 0,0" style="fill:#fdf7c3;fill-opacity:1;fill-rule:nonzero;stroke:none" id="path1098" />
        </g>
        <g id="g1100" transform="translate(605.7676,351.5376)">
          <path d="m 0,0 c -0.443,6.655 -3.83,15.902 -11.882,15.693 -1.612,-0.042 -3.06,-0.57 -4.259,-1.403 -3.434,4.128 -9.213,6.479 -14.444,4.592 -5.142,-1.855 -7.268,-6.135 -6.942,-10.386 -3.345,-1.821 -5.518,-5.011 -5.075,-9.358 0.163,-1.59 0.786,-2.777 1.67,-3.585 -3.81,-4.954 -1.717,-11.772 4.71,-15.887 3.441,-2.202 7.539,-3.083 11.451,-1.786 2.447,0.812 3.95,2.72 4.838,4.981 2.69,-2.48 6.579,-3.548 10.447,-2.009 C -2.692,-16.444 0.452,-6.791 0,0" style="fill:#240e10;fill-opacity:1;fill-rule:nonzero;stroke:none" id="path1102" />
        </g>
        <g id="g1104" transform="translate(586.9189,349.2231)">
          <path d="m 0,0 c -0.85,-10.359 6.858,-19.446 17.217,-20.296 10.358,-0.85 19.446,6.858 20.297,17.217 C 38.363,7.28 30.655,16.367 20.296,17.217 9.937,18.067 0.85,10.358 0,0" style="fill:#f28916;fill-opacity:1;fill-rule:nonzero;stroke:none" id="path1106" />
        </g>
        <g id="g1108" transform="translate(675.0752,345.8496)">
          <path d="m 0,0 c 1.521,6.494 6.371,15.065 14.28,13.546 1.585,-0.304 2.928,-1.062 3.973,-2.08 4.063,3.514 10.147,4.89 15,2.176 4.771,-2.668 6.171,-7.238 5.156,-11.378 3.004,-2.343 4.628,-5.843 3.481,-10.06 -0.419,-1.542 -1.228,-2.613 -2.233,-3.265 2.953,-5.509 -0.223,-11.895 -7.236,-14.907 -3.754,-1.612 -7.941,-1.812 -11.589,0.105 -2.281,1.2 -3.452,3.327 -3.961,5.704 -3.058,-2.009 -7.069,-2.429 -10.634,-0.28 C -0.026,-16.664 -1.554,-6.626 0,0" style="fill:#240e10;fill-opacity:1;fill-rule:nonzero;stroke:none" id="path1110" />
        </g>
        <g id="g1112" transform="translate(693.293,340.4927)">
          <path d="m 0,0 c -0.85,-10.359 -9.937,-18.067 -20.296,-17.217 -10.358,0.85 -18.066,9.937 -17.216,20.296 0.85,10.359 9.936,18.067 20.296,17.217 C -6.857,19.445 0.851,10.359 0,0" style="fill:#f28916;fill-opacity:1;fill-rule:nonzero;stroke:none" id="path1114" />
        </g>
        <g id="g1116" transform="translate(581.0352,317.0381)">
          <path d="m 0,0 c -0.307,-3.741 2.363,-7.013 5.956,-7.308 3.597,-0.295 6.762,2.498 7.068,6.239 0.307,3.741 -2.36,7.013 -5.958,7.308 C 3.476,6.534 0.307,3.741 0,0" style="fill:#904434;fill-opacity:1;fill-rule:nonzero;stroke:none" id="path1118" />
        </g>
        <g id="g1120" transform="translate(680.8262,308.8477)">
          <path d="m 0,0 c -0.308,-3.74 2.364,-7.012 5.958,-7.307 3.597,-0.295 6.759,2.498 7.067,6.238 C 13.332,2.673 10.667,5.945 7.07,6.24 3.476,6.535 0.308,3.742 0,0" style="fill:#904434;fill-opacity:1;fill-rule:nonzero;stroke:none" id="path1122" />
        </g>
        <g id="g1124" transform="translate(639.1641,263.8203)">
          <path d="M 0,0 -11.429,0.938 -9.104,29.269 2.324,28.331 Z" style="fill:#904434;fill-opacity:1;fill-rule:nonzero;stroke:none" id="path1126" />
        </g>
        <g id="g1128" transform="translate(685.2998,354.7812)">
          <path d="m 0,0 c -0.344,17.94 -29.283,28.125 -44.562,29.264 -16.866,1.25 -40.747,-3.798 -44.119,-22.009 -2.02,-10.923 -3.598,-21.984 -4.322,-33.066 -0.654,-10.012 -2.423,-21.37 0.295,-31.274 8.717,-31.605 70.817,-35.377 85.726,-7.929 4.788,8.81 4.616,20.358 5.681,29.993 C -0.019,-23.428 0.228,-11.668 0,0" style="fill:#904434;fill-opacity:1;fill-rule:nonzero;stroke:none" id="path1130" />
        </g>
        <g id="g1132">
          <g id="g1134" />
          <g id="g1146">
            <g clip-path="url(#clipPath1138)" id="g1144">
              <g transform="translate(635.7715,305.251)" id="g1142">
                <path d="m 0,0 c -1.869,0.357 -3.986,0.24 -5.206,-1.415 -0.997,-1.355 -0.811,-3.235 -0.296,-4.73 0.487,-1.418 1.564,-2.818 3.031,-3.299 1.881,-0.617 3.493,0.782 4.483,2.233 0.509,0.746 -0.639,1.547 -1.148,0.802 -0.661,-0.971 -1.675,-2.108 -2.975,-1.681 -1.089,0.357 -1.756,1.545 -2.129,2.55 -0.368,0.992 -0.455,2.274 0.105,3.21 0.814,1.358 2.695,1.189 4.021,0.935 C 0.771,-1.563 0.877,-0.167 0,0" style="fill:#904434;fill-opacity:1;fill-rule:nonzero;stroke:none" id="path1140" />
              </g>
            </g>
          </g>
        </g>
        <g id="g1148" transform="translate(607.1504,335.5249)">
          <path d="m 0,0 c 2.297,1.393 5.657,3.278 8.301,1.714 3.3,-1.949 6.736,2.932 3.424,4.89 C 7.023,9.382 1.86,8.08 -2.578,5.384 -5.834,3.405 -3.292,-2.004 0,0" style="fill:#240e10;fill-opacity:1;fill-rule:nonzero;stroke:none" id="path1150" />
        </g>
        <g id="g1152" transform="translate(669.1963,330.4326)">
          <path d="m 0,0 c -2.036,1.749 -5.041,4.156 -7.906,3.044 -3.571,-1.385 -6.17,3.992 -2.58,5.384 C -5.393,10.401 -0.513,8.274 3.427,4.891 6.313,2.408 2.925,-2.514 0,0" style="fill:#240e10;fill-opacity:1;fill-rule:nonzero;stroke:none" id="path1154" />
        </g>
        <g id="g1156" transform="translate(599.0146,322.8394)">
          <path d="m 0,0 c -0.217,14.711 2.771,29.062 5.7,43.404 1.199,5.871 -7.79,8.37 -8.993,2.479 C -6.382,30.756 -9.556,15.516 -9.327,0 -9.238,-6.009 0.088,-6.018 0,0" style="fill:#240e10;fill-opacity:1;fill-rule:nonzero;stroke:none" id="path1158" />
        </g>
        <g id="g1160" transform="translate(684.8506,314.541)">
          <path d="m 0,0 c 2.768,15.312 2.242,30.769 1.659,46.243 -0.225,5.995 -9.553,6.017 -9.326,0 C -7.118,31.665 -6.384,16.912 -8.993,2.479 -10.057,-3.4 -1.068,-5.913 0,0" style="fill:#240e10;fill-opacity:1;fill-rule:nonzero;stroke:none" id="path1162" />
        </g>
        <g id="g1164" transform="translate(672.1006,313.6338)">
          <path d="m 0,0 c -0.66,-8.039 -7.529,-14.038 -15.351,-13.396 -7.824,0.643 -13.626,7.681 -12.965,15.72 0.659,8.032 7.53,14.032 15.355,13.39 C -5.14,15.072 0.659,8.033 0,0" style="fill:#240e10;fill-opacity:1;fill-rule:nonzero;stroke:none" id="path1166" />
        </g>
        <g id="g1168" transform="translate(671.8467,310.5469)">
          <path d="m 0,0 c -0.659,-8.039 -7.528,-14.037 -15.35,-13.396 -7.824,0.643 -13.626,7.681 -12.965,15.72 0.659,8.033 7.53,14.032 15.354,13.39 C -5.14,15.072 0.659,8.033 0,0" style="fill:#ffffff;fill-opacity:1;fill-rule:nonzero;stroke:none" id="path1170" />
        </g>
        <g id="g1172" transform="translate(661.9961,326.0557)">
          <path d="m 0,0 c -3.781,0.311 -7.229,-1.687 -9.068,-4.838 1.101,-0.517 1.829,-1.71 1.72,-3.035 -0.134,-1.641 -1.503,-2.877 -3.084,-2.815 0.328,-4.818 3.996,-8.792 8.801,-9.187 5.305,-0.435 9.975,3.659 10.425,9.15 C 9.245,-5.235 5.305,-0.436 0,0" style="fill:#240e10;fill-opacity:1;fill-rule:nonzero;stroke:none" id="path1174" />
        </g>
        <g id="g1176" transform="translate(645.8965,321.6279)">
          <path d="M 0,0 -3.826,3.908 -2.495,5.213 1.332,1.305 Z" style="fill:#240e10;fill-opacity:1;fill-rule:nonzero;stroke:none" id="path1178" />
        </g>
        <g id="g1180" transform="translate(629.5342,317.127)">
          <path d="m 0,0 c -0.659,-8.039 -7.528,-14.037 -15.35,-13.395 -7.824,0.642 -13.625,7.68 -12.965,15.719 0.659,8.033 7.53,14.033 15.355,13.391 C -5.14,15.073 0.66,8.033 0,0" style="fill:#240e10;fill-opacity:1;fill-rule:nonzero;stroke:none" id="path1182" />
        </g>
        <g id="g1184" transform="translate(629.2812,314.0405)">
          <path d="m 0,0 c -0.659,-8.04 -7.528,-14.038 -15.35,-13.396 -7.825,0.643 -13.627,7.681 -12.966,15.72 0.66,8.032 7.531,14.032 15.355,13.39 C -5.14,15.072 0.659,8.033 0,0" style="fill:#ffffff;fill-opacity:1;fill-rule:nonzero;stroke:none" id="path1186" />
        </g>
        <g id="g1188" transform="translate(619.4307,329.5493)">
          <path d="m 0,0 c -3.781,0.311 -7.229,-1.688 -9.068,-4.839 1.102,-0.517 1.829,-1.709 1.72,-3.034 -0.134,-1.642 -1.503,-2.877 -3.083,-2.815 0.326,-4.818 3.995,-8.792 8.8,-9.187 5.305,-0.435 9.975,3.658 10.425,9.149 C 9.245,-5.235 5.305,-0.436 0,0" style="fill:#240e10;fill-opacity:1;fill-rule:nonzero;stroke:none" id="path1190" />
        </g>
        <g id="g1192" transform="translate(603.3311,325.1211)">
          <path d="M 0,0 -3.827,3.908 -2.495,5.213 1.332,1.305 Z" style="fill:#240e10;fill-opacity:1;fill-rule:nonzero;stroke:none" id="path1194" />
        </g>
        <g id="g1196" transform="translate(694.6992,376.0625)">
          <path d="m 0,0 c -1.97,11.326 -9.373,21.682 -21.235,23.526 -1.418,0.22 -3.126,0.38 -4.856,0.338 -4.913,5.152 -15.175,6.867 -21.91,6.417 -7.213,-0.482 -12.956,-4.488 -17.74,-9.743 -2.544,-2.793 -3.678,-6.611 -3.425,-10.28 -7.322,-3.52 -9.343,-16.025 -7.28,-23.136 1.508,-5.194 5.933,-9.286 11.529,-9.111 2.355,0.073 4.454,0.774 6.277,1.909 2.838,-4.515 7.808,-7.848 13.05,-9.05 6.732,-1.543 12.658,0.464 16.268,4.856 5.479,-5.058 13.896,-7.579 20.243,-4.782 C 0.78,-24.71 1.558,-8.957 0,0" style="fill:#240e10;fill-opacity:1;fill-rule:nonzero;stroke:none" id="path1198" />
        </g>
        <g id="g1200" transform="translate(626.8135,394.8823)">
          <path d="m 0,0 c -5.02,7.424 -15.147,9.522 -22.702,5.034 -4.568,-2.715 -7.778,-7.215 -8.06,-11.576 -5.831,-5.187 -7.411,-16.74 -1.862,-22.061 6.547,-6.277 16.625,-2.779 22.004,3.667 5.037,-1.951 10.459,-0.947 13.453,4.834 C 6.163,-13.674 3.789,-5.606 0,0" style="fill:#240e10;fill-opacity:1;fill-rule:nonzero;stroke:none" id="path1202" />
        </g>
        <g id="g1204" transform="translate(635.8535,288.4287)">
          <path d="M 0,0 C 4.512,-1.047 8.933,0.474 10.184,5.273 10.64,7.021 7.94,7.762 7.486,6.018 6.631,2.736 3.781,1.993 0.743,2.698 -1.012,3.105 -1.758,0.408 0,0" style="fill:#240e10;fill-opacity:1;fill-rule:nonzero;stroke:none" id="path1206" />
        </g>
        <g id="g1208" transform="translate(693.3574,393.3853)">
          <path d="M 0,0 11.42,13.027" style="fill:none;stroke:#240e10;stroke-width:2;stroke-linecap:round;stroke-linejoin:round;stroke-miterlimit:10;stroke-dasharray:none;stroke-opacity:1" id="path1210" />
        </g>
        <g id="g1212" transform="translate(698.3965,387.2085)">
          <path d="M 0,0 15.48,7.776" style="fill:none;stroke:#240e10;stroke-width:2;stroke-linecap:round;stroke-linejoin:round;stroke-miterlimit:10;stroke-dasharray:none;stroke-opacity:1" id="path1214" />
        </g>
        <g id="g1216" transform="translate(700.2754,378.1831)">
          <path d="M 0,0 17.309,-0.72" style="fill:none;stroke:#240e10;stroke-width:2;stroke-linecap:round;stroke-linejoin:round;stroke-miterlimit:10;stroke-dasharray:none;stroke-opacity:1" id="path1218" />
        </g>
        <g id="g1220">
          <g id="g1222" />
          <g id="g1234">
            <g clip-path="url(#clipPath1226)" opacity="0.100006" id="g1232">
              <g transform="translate(697.5479,97.8164)" id="g1230">
                <path d="m 0,0 c 0,-10.442 -29.133,-18.908 -65.07,-18.908 -35.938,0 -65.071,8.466 -65.071,18.908 0,10.442 29.133,18.908 65.071,18.908 C -29.133,18.908 0,10.442 0,0" style="fill:#240e10;fill-opacity:1;fill-rule:nonzero;stroke:none" id="path1228" />
              </g>
            </g>
          </g>
        </g>
      </g>
    </g>
  </g>
</svg>