<svg viewBox="0 0 500 500" xmlns="http://www.w3.org/2000/svg">
  <defs></defs>
  <title>glass</title>
  <path d="M 150.477 149.159 C 161.307 158.279 173.607 155.269 186.187 152.159 C 195.447 149.899 204.847 147.599 214.027 149.969 L 214.417 150.069 L 209.327 215.539 C 209.147 218.194 208.026 220.697 206.167 222.599 C 204.387 224.4 201.959 225.412 199.427 225.409 L 166.847 225.409 C 164.35 225.42 161.955 224.421 160.207 222.639 C 158.352 220.71 157.201 218.212 156.937 215.549 L 149.547 148.379 L 150.477 149.159 Z" style="
    color: white;
"></path>
  <path class="cls-1" d="M 150.167 151.619 C 169.167 167.619 192.337 146.999 213.907 152.619 L 208.847 217.679 C 208.447 222.849 204.607 227.109 199.427 227.109 L 166.847 227.109 C 161.667 227.109 157.987 222.829 157.427 217.679 L 150.167 151.619 Z" style="fill-rule: evenodd; fill: rgb(74, 175, 241);"></path>
  <path d="M 145.767 119.929 C 145.741 119.774 145.741 119.615 145.767 119.459 C 145.752 119.246 145.752 119.032 145.767 118.819 C 145.767 114.889 150.167 111.519 157.277 109.239 C 163.837 107.119 172.867 105.819 182.767 105.819 C 192.667 105.819 201.767 107.119 208.327 109.229 C 215.437 111.509 219.827 114.879 219.827 118.809 C 219.825 119.436 219.717 120.058 219.507 120.649 L 210.507 217.779 C 210.267 220.708 209.016 223.463 206.967 225.569 C 204.989 227.579 202.286 228.707 199.467 228.699 L 166.847 228.699 C 164.034 228.715 161.335 227.589 159.367 225.579 C 157.312 223.482 156.04 220.742 155.767 217.819 L 145.767 119.929 Z M 149.577 124.819 L 159.057 217.509 C 159.245 219.683 160.173 221.727 161.687 223.299 C 163.047 224.682 164.907 225.457 166.847 225.449 L 199.427 225.449 C 201.376 225.453 203.246 224.675 204.617 223.289 C 206.121 221.726 207.039 219.691 207.217 217.529 L 215.817 124.959 C 213.501 126.475 210.978 127.648 208.327 128.439 C 201.767 130.509 192.767 131.819 182.767 131.819 C 172.767 131.819 163.767 130.519 157.247 128.409 C 154.523 127.607 151.937 126.397 149.577 124.819 Z M 216.277 119.959 L 216.347 119.309 C 216.362 119.085 216.427 118.866 216.537 118.669 C 216.357 116.399 212.867 114.169 207.317 112.389 C 201.077 110.349 192.407 109.109 182.767 109.109 C 173.127 109.109 164.517 110.349 158.277 112.349 C 152.577 114.179 149.057 116.479 149.057 118.819 C 149.057 121.159 152.577 123.459 158.277 125.289 C 164.517 127.289 173.187 128.529 182.797 128.529 C 192.407 128.529 201.077 127.289 207.317 125.289 C 212.117 123.749 215.317 121.879 216.317 119.929 L 216.277 119.959 Z" style="
"></path>
  <path class="cls-2" d="M 160.227 168.609 C 160.1 167.351 161.383 166.426 162.536 166.946 C 163.072 167.187 163.438 167.695 163.497 168.279 L 164.767 180.679 C 164.95 181.928 163.713 182.908 162.539 182.442 C 161.945 182.207 161.542 181.647 161.507 181.009 L 160.237 168.609 L 160.227 168.609 Z M 162.397 189.819 C 162.266 188.561 163.546 187.632 164.702 188.148 C 165.238 188.388 165.606 188.895 165.667 189.479 L 167.937 211.699 C 168.024 212.601 167.368 213.405 166.467 213.499 C 165.569 213.592 164.766 212.938 164.677 212.039 L 162.397 189.819 Z" style="fill: rgb(248, 248, 255);"></path>
  <ellipse style="stroke: rgb(0, 0, 0); fill: rgb(248, 248, 255);" cx="173.063" cy="169.492" rx="3.783" ry="5.599"></ellipse>
  <text style="white-space: pre; fill: rgb(51, 51, 51); font-family: Arial, sans-serif; font-size: 11.4px;" x="49.84" y="138.01" transform="matrix(4.188377, 0, 0, 0.583715, -40.928612, 111.316338)">V<tspan x="49.84000015258789" dy="1em">​</tspan></text>
  <ellipse style="stroke: rgb(0, 0, 0);" cx="172.904" cy="167.407" rx="1.389" ry="2.341"></ellipse>
  <ellipse style="stroke: rgb(0, 0, 0); fill: rgb(248, 248, 255);" cx="193.684" cy="169.283" rx="3.783" ry="5.599"></ellipse>
  <ellipse style="stroke: rgb(0, 0, 0);" cx="193.524" cy="167.198" rx="1.389" ry="2.341"></ellipse>
</svg>