<svg viewBox="0 0 100 125" xmlns="http://www.w3.org/2000/svg">
  <defs></defs>
  <title>glass</title>
  <title>glass</title>
  <path class='cls-0' d="M 18.227 44.277 C 29.057 53.397 41.357 50.387 53.937 47.277 C 63.197 45.017 72.597 42.717 81.777 45.087 L 82.167 45.187 L 77.077 110.657 C 76.897 113.312 75.776 115.815 73.917 117.717 C 72.137 119.518 69.709 120.53 67.177 120.527 L 34.597 120.527 C 32.1 120.538 29.705 119.539 27.957 117.757 C 26.102 115.828 24.951 113.33 24.687 110.667 L 17.297 43.497 L 18.227 44.277 Z" style="
    color: white;
"></path>
  <path class="cls-1" d="M 17.917 46.737 C 36.917 62.737 60.087 42.117 81.657 47.737 L 76.597 112.797 C 76.197 117.967 72.357 122.227 67.177 122.227 L 34.597 122.227 C 29.417 122.227 25.737 117.947 25.177 112.797 L 17.917 46.737 Z" style="fill-rule: evenodd; fill: rgb(74, 175, 241);"></path>
  <path d="M 13.517 15.047 C 13.491 14.892 13.491 14.733 13.517 14.577 C 13.502 14.364 13.502 14.15 13.517 13.937 C 13.517 10.007 17.917 6.637 25.027 4.357 C 31.587 2.237 40.617 0.937 50.517 0.937 C 60.417 0.937 69.517 2.237 76.077 4.347 C 83.187 6.627 87.577 9.997 87.577 13.927 C 87.575 14.554 87.467 15.176 87.257 15.767 L 78.257 112.897 C 78.017 115.826 76.766 118.581 74.717 120.687 C 72.739 122.697 70.036 123.825 67.217 123.817 L 34.597 123.817 C 31.784 123.833 29.085 122.707 27.117 120.697 C 25.062 118.6 23.79 115.86 23.517 112.937 L 13.517 15.047 Z M 17.327 19.937 L 26.807 112.627 C 26.995 114.801 27.923 116.845 29.437 118.417 C 30.797 119.8 32.657 120.575 34.597 120.567 L 67.177 120.567 C 69.126 120.571 70.996 119.793 72.367 118.407 C 73.871 116.844 74.789 114.809 74.967 112.647 L 83.567 20.077 C 81.251 21.593 78.728 22.766 76.077 23.557 C 69.517 25.627 60.517 26.937 50.517 26.937 C 40.517 26.937 31.517 25.637 24.997 23.527 C 22.273 22.725 19.687 21.515 17.327 19.937 Z M 84.027 15.077 L 84.097 14.427 C 84.112 14.203 84.177 13.984 84.287 13.787 C 84.107 11.517 80.617 9.287 75.067 7.507 C 68.827 5.467 60.157 4.227 50.517 4.227 C 40.877 4.227 32.267 5.467 26.027 7.467 C 20.327 9.297 16.807 11.597 16.807 13.937 C 16.807 16.277 20.327 18.577 26.027 20.407 C 32.267 22.407 40.937 23.647 50.547 23.647 C 60.157 23.647 68.827 22.407 75.067 20.407 C 79.867 18.867 83.067 16.997 84.067 15.047 L 84.027 15.077 Z" style="
"></path>
  <path class="cls-2" d="M 27.977 63.727 C 27.85 62.469 29.133 61.544 30.286 62.064 C 30.822 62.305 31.188 62.813 31.247 63.397 L 32.517 75.797 C 32.7 77.046 31.463 78.026 30.289 77.56 C 29.695 77.325 29.292 76.765 29.257 76.127 L 27.987 63.727 L 27.977 63.727 Z M 30.147 84.937 C 30.016 83.679 31.296 82.75 32.452 83.266 C 32.988 83.506 33.356 84.013 33.417 84.597 L 35.687 106.817 C 35.774 107.719 35.118 108.523 34.217 108.617 C 33.319 108.71 32.516 108.056 32.427 107.157 L 30.147 84.937 Z" style="fill: rgb(248, 248, 255);"></path>
  <ellipse style="stroke: rgb(0, 0, 0); fill: rgb(248, 248, 255);" cx="40.813" cy="64.61" rx="3.783" ry="5.599"></ellipse>
  <text style="white-space: pre; fill: rgb(51, 51, 51); font-family: Arial, sans-serif; font-size: 11.4px;" x="49.84" y="138.01" transform="matrix(4.188377, 0, 0, 0.583715, -173.178467, 6.433594)">V<tspan x="49.84000015258789" dy="1em">​</tspan></text>
  <ellipse style="stroke: rgb(0, 0, 0);" cx="40.654" cy="62.525" rx="1.389" ry="2.341"></ellipse>
  <ellipse style="stroke: rgb(0, 0, 0); fill: rgb(248, 248, 255);" cx="61.434" cy="64.401" rx="3.783" ry="5.599"></ellipse>
  <ellipse style="stroke: rgb(0, 0, 0);" cx="61.274" cy="62.316" rx="1.389" ry="2.341"></ellipse>
</svg>